<svg width="48" height="56" viewBox="0 0 48 56" fill="none" xmlns="http://www.w3.org/2000/svg">
<g clip-path="url(#clip0_522_1655)">
<path d="M24.0962 53.9668C23.9537 53.8241 24.0962 53.5385 23.9537 53.3958C23.9537 53.5385 23.8111 53.6813 23.8111 53.8241C23.8111 53.9668 23.8111 54.1096 23.8111 54.2524C23.8111 54.5379 23.8111 54.5379 23.526 54.5379C23.3835 54.5379 23.2409 54.5379 23.2409 54.5379C22.9558 54.5379 22.6707 54.5379 22.3855 54.6807C22.1004 54.6807 21.8153 54.8234 21.6728 54.8234C21.3876 54.8234 21.1025 54.8234 20.8174 54.8234C20.3897 54.8234 20.1046 54.8234 19.6769 54.8234C19.1067 54.8234 18.5365 54.8234 17.9663 54.8234C17.9663 54.8234 17.9663 54.8234 17.9663 54.9662C17.9663 54.9662 18.1088 55.109 17.9663 55.109C17.9663 55.109 17.8237 55.109 17.8237 54.9662C17.6811 54.9662 17.8237 54.8234 17.8237 54.8234C17.396 54.8234 16.8258 54.8234 16.3981 54.8234C15.9704 54.8234 15.5428 54.8234 15.2577 54.8234C14.9725 54.8234 14.6874 54.8234 14.4023 54.8234H14.2597C14.1172 54.9662 13.9746 54.9662 13.8321 54.9662C12.9767 54.9662 12.1214 54.9662 11.4086 54.9662C10.8384 54.9662 10.4107 54.9662 9.84045 54.9662C9.55533 54.9662 9.27022 54.9662 9.12766 54.9662H8.9851C8.69998 54.8234 8.41487 54.8234 8.27231 55.109C8.27231 55.109 8.12975 55.2517 8.12975 55.109C7.84464 55.109 7.55952 55.109 7.2744 55.109C7.13185 55.109 6.84673 55.109 6.70417 55.109C6.70417 55.109 6.56161 55.109 6.56161 54.9662C6.41906 54.8234 6.13394 54.8234 5.84882 54.8234C5.84882 54.9662 5.99138 54.9662 5.99138 54.9662C5.99138 55.109 5.84882 54.9662 5.70627 54.9662C4.85092 54.9662 3.85301 54.9662 2.99766 54.9662C2.71255 54.9662 2.42743 54.9662 1.99976 54.9662C1.57208 54.9662 1.28697 54.9662 0.859294 54.8234C0.716736 54.8234 0.716736 54.8234 0.716736 54.6807C0.574178 54.5379 0.43162 54.2524 0.289062 54.1096C0.289062 54.1096 0.289062 53.9668 0.289062 53.8241C0.289062 51.2542 0.289062 48.5416 0.289062 45.9718C0.289062 43.6874 0.289062 41.2604 0.289062 38.9761C0.289062 38.405 0.289062 37.9767 0.289062 37.4056C0.289062 37.1201 0.289062 36.8345 0.289062 36.549C0.289062 36.4062 0.289062 36.1207 0.289062 35.9779C0.289062 35.6924 0.289062 35.5496 0.289062 35.2641V35.1213C0.289062 34.693 0.289062 34.2647 0.289062 33.8364C0.289062 33.6936 0.289062 33.4081 0.289062 33.2653V33.1225C0.43162 32.9798 0.43162 32.9798 0.43162 32.837V32.6942C0.43162 32.4087 0.43162 31.9804 0.289062 31.6948C0.289062 31.5521 0.289062 31.4093 0.289062 31.2665C0.289062 30.8382 0.289062 30.5527 0.289062 30.1244V29.9816C0.574178 29.6961 0.716736 29.5533 1.00185 29.2678C1.14441 29.2678 1.14441 29.125 1.28697 29.125C1.99976 29.125 2.71255 29.125 3.42534 29.125C5.70627 29.125 7.84464 29.125 10.1256 29.125C10.9809 29.125 11.8363 29.125 12.6916 29.125C13.2618 29.125 13.8321 29.125 14.4023 29.125C14.83 29.125 15.2577 29.125 15.6853 29.125C16.113 29.125 16.3981 29.125 16.8258 29.125C17.396 29.125 17.9663 29.125 18.5365 29.125C19.3918 29.125 20.2472 29.125 21.2451 29.125C21.5302 29.125 21.5302 29.125 21.5302 29.4105C21.5302 29.6961 21.5302 29.9816 21.3876 30.2672C21.3876 30.5527 21.2451 30.981 21.2451 31.2665C21.2451 31.5521 21.1025 31.9804 21.1025 32.2659C20.96 32.6942 20.96 32.9798 20.8174 33.4081C20.6749 33.9791 20.5323 34.5502 20.3897 35.1213C20.2472 35.9779 19.9621 36.6918 19.6769 37.4056C19.3918 38.2622 18.9642 38.9761 18.3939 39.6899C18.1088 40.1182 17.6811 40.6893 17.396 41.1176C16.8258 41.8314 16.2556 42.4025 15.5428 43.1164C15.2577 43.4019 14.83 43.8302 14.5449 44.1158C14.2597 44.4013 13.8321 44.8296 13.547 45.1151C13.2618 45.4007 12.9767 45.6862 12.549 45.9718C11.9788 46.4001 11.5511 46.9711 10.9809 47.5422C10.8384 47.685 10.6958 47.685 10.6958 47.5422C10.5532 47.3994 10.4107 47.3994 10.2681 47.5422C9.983 47.8278 9.69789 48.2561 9.55533 48.5416C9.12766 49.1127 8.84254 49.8265 8.55743 50.3976C8.27231 50.8259 8.12975 51.397 8.12975 51.8253C8.12975 52.2536 8.12975 52.8247 8.27231 53.253C8.41487 53.5385 8.55743 53.6813 8.84254 53.9668C8.9851 53.9668 8.9851 53.9668 9.12766 53.8241C9.41277 53.3957 9.55533 52.9674 9.84045 52.6819C10.2681 51.8253 10.6958 50.9687 11.266 50.1121C10.9809 49.9693 11.4086 49.541 11.6937 49.1127C11.9788 48.6844 12.4065 48.3988 12.6916 47.9705C13.1193 47.5422 13.547 47.1139 13.9746 46.6856C14.2597 46.2573 14.6874 45.9718 15.1151 45.6862C15.8279 44.9724 16.6832 44.4013 17.5386 43.8302C17.9663 43.5447 18.5365 43.1164 18.9642 42.8308C19.1067 42.8308 19.1067 42.8308 19.1067 42.9736C19.2493 43.5447 19.2493 44.1158 19.1067 44.6868C18.9642 45.5434 18.679 46.4001 18.5365 47.2567C18.3939 47.8278 18.2514 48.3988 18.1088 48.9699C18.1088 49.1127 18.1088 49.2554 18.1088 49.541C18.1088 49.9693 17.9663 50.2548 17.8237 50.5404C17.6811 50.6831 17.6811 50.8259 17.5386 50.9687C17.396 51.2542 17.5386 51.397 17.6811 51.5397C17.9663 51.8253 18.2514 52.1108 18.5365 52.2536C19.2493 52.6819 19.8195 53.1102 20.5323 53.5385C20.96 53.6813 21.3876 53.9668 21.8153 53.9668C22.243 54.1096 22.6707 54.1096 23.0983 53.9668C23.0983 53.9668 23.2409 53.9668 23.2409 53.8241C23.2409 53.6813 23.0983 53.6813 23.0983 53.5385C22.8132 53.253 22.3855 52.9674 21.9579 52.8247C21.5302 52.5391 21.1025 52.2536 20.8174 51.9681C20.5323 51.6825 20.2472 51.2542 20.1046 50.8259C19.9621 50.5404 19.9621 50.3976 19.9621 50.1121C19.9621 49.1127 20.1046 48.2561 20.3897 47.3994C20.5323 46.6856 20.8174 45.829 21.1025 45.1151C21.3876 44.5441 21.6728 43.973 21.9579 43.4019C22.5281 42.2598 22.9558 41.2604 23.526 40.1182C23.6686 39.8327 23.8111 39.6899 23.8111 39.4044L23.9537 39.2616V39.4044C23.9537 40.8321 23.9537 42.4025 23.9537 43.8302C23.9537 45.2579 23.9537 46.6856 23.9537 48.1133C23.9537 48.5416 23.9537 49.1127 23.9537 49.541C23.9537 49.6838 23.9537 49.9693 23.9537 50.1121C23.9537 50.3976 23.9537 50.6831 23.9537 50.8259C23.9537 51.397 23.9537 51.9681 23.9537 52.5391C24.0962 53.253 24.2388 53.5385 24.0962 53.9668ZM0.574178 51.9681C0.43162 51.6825 0.43162 51.8253 0.574178 51.9681C0.43162 51.8253 0.289062 51.9681 0.289062 51.9681C0.289062 51.9681 0.289062 51.9681 0.574178 51.9681C0.43162 51.9681 0.43162 51.9681 0.574178 51.9681Z" fill="#A7C5AA"/>
<path d="M35.7819 25.8412C36.6373 25.8412 37.2075 25.8412 37.9203 25.8412H38.0629C37.9203 25.8412 37.9203 25.8412 37.7777 25.8412C37.4926 25.8412 37.065 25.8412 36.7798 25.8412C36.2096 25.8412 35.7819 25.8412 35.2117 25.8412C34.9266 25.8412 34.6415 25.8412 34.2138 25.8412C34.0712 25.8412 33.9287 25.8412 33.7861 25.6984C33.7861 25.5557 33.6436 25.5557 33.501 25.5557C32.9308 25.5557 32.5031 25.5557 31.9329 25.5557C32.0754 25.5557 32.3605 25.5557 32.5031 25.6984C32.0754 25.984 30.6498 25.984 30.5073 25.6984C30.6498 25.6984 30.7924 25.6984 30.935 25.5557C30.6498 25.4129 30.0796 25.4129 29.9371 25.5557L30.0796 25.6984C30.2222 25.8412 30.0796 25.8412 30.0796 25.8412C29.7945 25.8412 29.3668 25.8412 29.0817 25.8412C28.9392 25.8412 28.9392 25.6984 28.9392 25.6984C28.9392 25.5557 28.9392 25.2701 28.9392 25.1274C28.9392 24.8418 29.0817 24.5563 29.0817 24.2707C29.0817 23.9852 29.2243 23.6997 29.2243 23.4141C29.2243 23.1286 29.2243 22.8431 29.3668 22.5575C29.3668 22.272 29.5094 21.8437 29.5094 21.5581C29.5094 21.4154 29.5094 21.2726 29.5094 21.1298C29.5094 20.8443 29.5094 20.5588 29.5094 20.2732C29.5094 19.4166 29.5094 18.4172 29.5094 17.5606C29.5094 17.1323 29.5094 16.704 29.5094 16.2757C29.5094 15.8474 29.5094 15.4191 29.5094 14.9908C29.5094 14.4197 29.6519 13.8486 29.9371 13.2775C30.2222 12.5637 30.6498 11.9926 30.935 11.4215C31.3626 10.7077 31.6478 9.99384 32.0754 9.27999C32.5031 8.56615 32.7882 7.8523 33.0733 6.99569C33.501 6.13907 33.7861 5.28246 34.2138 4.42584C34.4989 3.712 34.784 2.99815 34.9266 2.28431C35.0691 1.856 35.2117 1.42769 35.2117 0.999384C35.0691 0.999384 35.0691 1.14215 34.9266 1.28492C34.784 1.99877 34.4989 2.71261 34.0712 3.28369C33.9287 3.56923 33.501 3.56923 33.2159 3.56923C33.2159 3.56923 33.0733 3.56923 32.9308 3.56923C32.9308 3.56923 32.7882 3.56923 32.7882 3.712V3.85477C32.7882 4.71138 32.6457 5.42523 32.3605 6.13907C32.218 6.56738 31.9329 6.99569 31.7903 7.56676C31.3626 8.42338 30.935 9.13722 30.3647 9.99384C30.0796 10.4221 29.7945 10.7077 29.5094 11.136C29.3668 11.2788 29.2243 11.5643 28.9392 11.7071C28.5115 12.1354 27.9412 12.5637 27.0859 12.8492C27.0859 12.8492 26.9433 12.8492 26.8008 12.8492C26.8008 12.7064 26.8008 12.7065 26.8008 12.5637C26.8008 9.13722 26.8008 5.71076 26.8008 2.14154C26.8008 1.856 26.8008 1.57046 26.8008 1.28492C26.8008 0.999384 26.8008 0.713845 27.0859 0.571076C27.2285 0.428307 27.371 0.285538 27.5136 0.142769C27.371 0 27.5136 0 27.6561 0C28.5115 0 29.3668 0 30.2222 0C32.0754 0 33.9287 0 35.7819 0C38.0629 0 40.4863 0 42.7673 0C44.0503 0 45.3333 0 46.6163 0C46.7589 0 47.044 0 47.1866 0.285538C47.3291 0.428307 47.6142 0.713846 47.7568 0.856615C47.8994 0.999384 47.8994 0.999384 47.6143 1.14215C47.4717 1.14215 47.4717 1.14215 47.4717 1.28492C47.4717 1.71323 47.4717 1.99877 47.4717 2.42707C47.4717 2.85538 47.4717 3.28369 47.4717 3.712C47.4717 3.99753 47.3291 4.42584 47.3291 4.71138C47.3291 4.85415 47.3291 5.13969 47.3291 5.28246C47.3291 6.28184 47.3291 7.28122 47.3291 8.42338C47.3291 11.136 47.3291 13.7058 47.3291 16.4184C47.3291 17.2751 47.3291 18.1317 47.3291 18.9883C47.3291 19.4166 47.4717 19.8449 47.4717 20.2732C47.4717 20.416 47.4717 20.7015 47.4717 20.8443C47.3291 21.2726 47.3291 21.7009 47.3291 22.1292C47.3291 22.5575 47.3291 23.1286 47.3291 23.5569C47.3291 23.8424 47.3291 24.2707 47.1866 24.5563C47.1866 24.5563 47.1866 24.6991 47.1866 24.5563C47.044 24.5563 47.044 24.5563 47.044 24.6991C47.044 24.9846 47.044 25.2701 47.044 25.5557C47.044 25.6984 47.044 25.6984 46.9015 25.6984C46.7589 25.6984 46.4738 25.6984 46.3312 25.6984C46.0461 25.6984 45.9036 25.6984 45.6184 25.6984C45.0482 25.6984 44.6205 25.6984 44.0503 25.6984C43.0524 25.6984 41.9119 25.6984 40.914 25.6984C40.0587 25.6984 39.3459 25.6984 38.4905 25.6984C38.2054 25.6984 37.7777 25.6984 37.4926 25.6984C37.065 25.6984 36.7798 25.6984 36.3522 25.6984C36.2096 25.6984 36.0671 25.6984 35.7819 25.8412Z" fill="#A7C5AA"/>
<path d="M45.0519 51.1116C45.0519 51.3971 45.0519 51.6827 45.0519 51.9682C45.0519 52.2537 45.0519 52.2537 44.7668 52.2537C44.3392 52.2537 44.054 52.2537 43.6264 52.2537C42.9136 52.2537 42.3433 52.2537 41.6306 52.2537C41.2029 52.2537 40.6327 52.2537 40.205 52.2537C40.0624 52.2537 39.9199 52.2537 39.7773 52.3965C39.6347 52.5393 39.4922 52.5393 39.4922 52.3965C39.4922 52.3965 39.4922 52.2537 39.6347 52.111C39.3496 52.111 39.0645 52.111 38.922 52.111C37.4964 52.111 36.2134 52.111 34.7878 52.111C34.5027 52.111 34.3601 52.111 34.075 52.2537C34.2175 52.2537 34.2175 52.3965 34.3601 52.3965C35.0729 52.3965 35.7857 52.3965 36.3559 52.3965H36.4985C36.4985 52.5393 36.4985 52.5393 36.3559 52.5393C36.0708 52.5393 35.9282 52.6821 35.6431 52.6821C34.9303 52.6821 34.2175 52.6821 33.5048 52.6821C33.2196 52.6821 32.792 52.6821 32.5068 52.6821C32.3643 52.6821 32.3643 52.682 32.2217 52.5393C32.2217 52.3965 32.0792 52.3965 31.9366 52.3965C31.5089 52.3965 31.0813 52.3965 30.511 52.3965C30.6536 52.3965 30.7962 52.3965 30.9387 52.5393H31.0813C30.7961 52.8248 30.6536 52.8248 30.511 52.8248C30.0834 52.8248 29.7982 52.8248 29.3706 52.8248C29.228 52.8248 29.228 52.8248 29.0855 52.6821C29.0855 52.6821 29.228 52.682 29.3706 52.5393C29.228 52.5393 29.0855 52.5393 29.0855 52.5393C28.9429 52.5393 28.9429 52.6821 28.9429 52.6821C28.9429 52.8248 28.9429 52.8248 28.8003 52.8248C28.5152 52.8248 28.2301 52.9676 27.8024 52.9676C27.5173 52.9676 27.0896 52.9676 26.8045 52.9676C26.5194 52.9676 26.3769 52.8248 26.2343 52.6821C26.0917 52.5393 25.9492 52.2537 25.8066 52.111C25.6641 52.111 25.6641 51.9682 25.6641 51.8254C25.6641 46.6857 25.6641 41.5461 25.6641 36.5491C25.6641 36.1208 25.8066 35.8353 25.9492 35.5498C26.3769 34.1221 26.9471 32.8371 27.3748 31.4095C27.6599 30.2673 28.0875 29.2679 28.3727 28.1258C28.3727 27.983 28.5152 27.8402 28.5152 27.6975C28.5152 27.5547 28.8003 27.5547 28.9429 27.5547C29.6557 27.5547 30.2259 27.5547 30.9387 27.5547C31.3664 27.5547 31.6515 27.5547 32.0792 27.5547C36.3559 27.5547 40.6327 27.5547 44.9094 27.5547C45.0519 27.5547 45.1945 27.5547 45.3371 27.6975C45.4796 27.8402 45.6222 27.983 45.6222 28.1258C45.7647 28.4113 45.9073 28.6968 45.7647 28.9824C45.6222 29.1251 45.6222 29.4107 45.7647 29.5535C45.7647 29.6962 45.7647 29.839 45.7647 29.9818C45.7647 30.5528 45.7647 30.9811 45.7647 31.5522C45.7647 32.1233 45.7647 32.5516 45.7647 33.1227C45.7647 33.551 45.7647 33.9793 45.7647 34.4076C45.7647 35.5498 45.7647 36.6919 45.7647 37.8341C45.7647 39.119 45.7647 40.4039 45.7647 41.6888C45.7647 42.1171 45.7647 42.5454 45.7647 42.9738C45.7647 43.4021 45.7647 43.8304 45.7647 44.2587C45.7647 44.5442 45.7647 44.687 45.7647 44.9725C45.7647 45.5436 45.7647 46.1147 45.9073 46.543C45.9073 46.8285 45.9073 46.9713 45.9073 47.2568C45.9073 47.5424 45.9073 47.8279 45.7647 48.1134C45.7647 48.2562 45.7647 48.2562 45.7647 48.399C45.7647 48.8273 45.7647 49.3984 45.7647 49.8267C45.7647 50.255 45.7647 50.5405 45.7647 50.9688C45.7647 51.1116 45.7647 51.1116 45.7647 51.2544C45.1945 51.2544 45.1945 51.2544 45.0519 51.1116Z" fill="#A7C5AA"/>
<path d="M7.69865 4.85402C7.84121 5.28233 8.12633 5.4251 8.41144 5.71064C8.69656 6.13895 8.98168 6.42448 9.26679 6.85279C9.55191 7.2811 9.83702 7.70941 10.2647 7.99494C10.6924 8.42325 10.9775 8.99433 11.4052 9.42263C11.8328 9.99371 12.118 10.5648 12.6882 10.9931C12.9733 11.7069 13.5435 11.9925 14.2563 12.1352C14.8266 12.278 15.2542 12.4208 15.8245 12.5636C16.3947 12.7063 16.8224 12.8491 17.25 13.1346C17.8203 13.4202 18.2479 13.7057 18.6756 14.134C18.9607 14.4196 19.3884 14.7051 19.6735 14.9906C20.1012 15.4189 20.6714 15.8472 21.0991 16.2755C21.6693 16.8466 22.2396 17.5605 22.8098 18.2743C23.0949 18.7026 23.38 19.2737 23.5226 19.8448C23.5226 19.9875 23.5226 20.2731 23.5226 20.5586C23.5226 21.1297 23.5226 21.558 23.38 22.1291C23.2375 22.5574 22.9524 22.9857 22.8098 23.2712C22.6672 23.6995 22.3821 23.9851 22.2396 24.4134C21.9545 24.8417 21.8119 25.27 21.8119 25.8411C21.6693 26.2694 21.6693 26.6977 21.5268 27.126C21.5268 27.4115 21.5268 27.6971 21.3842 27.8398C21.3842 27.9826 21.3842 27.9826 21.2417 27.9826C20.5289 27.9826 19.9586 27.9826 19.2459 27.9826C18.2479 27.9826 17.25 27.9826 16.2521 27.9826C15.5393 27.9826 14.8266 27.9826 14.1138 27.9826H14.2563C14.684 27.9826 15.1117 27.9826 15.3968 27.9826C15.3968 27.9826 15.6819 27.9826 15.5393 28.1254C15.5393 28.1254 15.3968 28.1254 15.2542 28.1254C14.9691 28.1254 14.684 28.1254 14.2563 28.1254C13.401 28.1254 12.5456 28.1254 11.5477 28.1254C11.4052 28.1254 11.12 28.1254 10.9775 27.9826C10.9775 27.9826 10.8349 27.8398 10.8349 27.9826V28.1254C10.8349 28.1254 10.8349 28.1254 10.8349 28.2682C10.6924 28.4109 10.6924 28.4109 10.5498 28.4109C10.5498 28.4109 10.4073 28.4109 10.4073 28.2682C10.4073 27.9826 10.1221 27.9826 9.97958 27.9826C9.26679 27.8398 8.41144 27.9826 7.69865 27.9826C7.5561 27.9826 7.41354 27.9826 7.12842 27.9826C7.27098 27.9826 7.41354 28.1254 7.41354 28.1254C7.41354 28.1254 7.5561 28.1254 7.5561 28.2682C7.5561 28.2682 7.5561 28.2682 7.41354 28.2682C7.27098 28.2682 7.27098 28.2682 7.12842 28.2682C6.27307 28.4109 5.56029 28.4109 4.70494 28.4109C4.41982 28.4109 4.27726 28.4109 4.13471 28.1254L3.99215 27.9826C3.70703 27.8398 3.70703 27.5543 3.70703 27.2688C3.70703 23.2712 3.70703 19.4165 3.70703 15.4189C3.70703 11.4214 3.70703 7.2811 3.70703 3.28356C3.70703 2.99803 3.70703 2.71249 3.99215 2.56972C4.27726 2.56972 4.41982 2.42695 4.56238 2.28418H4.70494C5.27517 2.28418 5.98796 2.28418 6.55819 2.28418C9.55191 2.28418 12.6882 2.28418 15.6819 2.28418C15.967 2.28418 16.3947 2.28418 16.6798 2.28418C17.5352 2.28418 18.3905 2.28418 19.2459 2.28418C19.9586 2.28418 20.814 2.28418 21.5268 2.28418C22.3821 2.28418 23.2375 2.28418 23.9503 2.28418C24.0928 2.28418 24.2354 2.28418 24.2354 2.42695C24.3779 2.56972 24.6631 2.85526 24.8056 2.99803C24.9482 3.14079 24.9482 3.14079 24.9482 3.28356C24.9482 4.42572 24.9482 5.56787 24.9482 6.71002C24.9482 8.28048 24.9482 9.85094 24.9482 11.4214C24.9482 11.7069 24.9482 11.9925 24.8056 12.278C24.8056 12.278 24.8056 12.4208 24.6631 12.4208C24.6631 12.4208 24.5205 12.4208 24.5205 12.278C24.3779 12.1352 24.3779 11.9925 24.3779 11.8497C24.2354 11.4214 24.2354 10.8503 24.2354 10.422C24.2354 9.85094 24.3779 9.42263 24.3779 8.85156C24.3779 8.28048 24.5205 7.85217 24.2354 7.2811C24.0928 6.99556 23.9503 6.85279 23.6651 6.71002C23.38 6.56725 23.0949 6.42448 22.6672 6.28171C21.9545 6.13895 21.2417 6.28171 20.6714 6.99556C20.3863 7.42387 20.1012 7.99494 19.9586 8.56602C19.8161 9.1371 19.8161 9.70817 20.1012 10.2792C20.2438 10.5648 20.3863 10.8503 20.6714 11.1359C20.814 11.2786 21.0991 11.4214 21.2417 11.7069C21.3842 11.8497 21.3842 11.8497 21.2417 11.9925C21.2417 11.9925 21.2417 11.9925 21.0991 11.9925C20.814 11.9925 20.3863 11.9925 20.1012 11.9925C19.2459 11.9925 18.3905 11.8497 17.6777 11.5642C16.9649 11.2786 16.2521 10.9931 15.5393 10.7076C14.8266 10.422 13.9712 9.99371 13.1159 9.42263C12.5456 8.99433 11.9754 8.70879 11.4052 8.13771C10.8349 7.70941 10.2647 7.13833 9.97958 6.42448C9.97958 6.28171 9.83702 6.13895 9.69447 5.99618C9.69447 5.85341 9.55191 5.85341 9.55191 5.99618C9.26679 6.28171 9.26679 6.28171 8.98168 5.99618C8.69656 5.85341 8.41144 5.4251 7.98377 5.13956C7.98377 4.99679 7.84121 4.99679 7.69865 4.85402Z" fill="#A7C5AA"/>
<path d="M8.98421 28.1254C9.12677 28.1254 9.41189 28.1254 9.697 28.1254C9.697 28.1254 9.83956 28.1254 9.83956 28.2681L9.697 28.4109C9.26933 28.4109 8.98421 28.4109 8.55654 28.4109C8.41398 28.4109 8.27142 28.4109 7.98631 28.2681C7.98631 28.2681 7.84375 28.2682 7.84375 28.1254C7.84375 28.1254 7.84375 28.1254 7.98631 27.9826C8.12887 27.8398 8.41398 27.8398 8.55654 27.8398C8.6991 27.9826 8.84166 28.1254 8.98421 28.1254Z" fill="#A7C5AA"/>
<path d="M32.078 52.6818C32.078 52.8246 32.078 52.8246 32.078 52.6818C31.9355 52.8246 31.7929 52.8246 31.6504 52.8246C31.6504 52.8246 31.5078 52.8246 31.5078 52.6818C31.5078 52.6818 31.5078 52.5391 31.6504 52.5391C31.7929 52.6818 31.9355 52.6818 32.078 52.6818Z" fill="#A7C5AA"/>
<path d="M33.3589 26.1271H33.2163C33.0737 25.9844 33.0737 25.9844 33.2163 25.9844C33.3589 25.9844 33.3589 25.9844 33.5014 25.9844L33.644 26.1271C33.644 26.1271 33.5014 26.1271 33.3589 26.1271Z" fill="#A7C5AA"/>
<path d="M18.9609 28.1252C18.9609 28.268 18.8183 28.268 18.8183 28.268C18.6758 28.268 18.6758 28.268 18.6758 28.1252C18.6758 27.9824 18.8183 27.9824 18.8183 27.9824C18.8183 27.9824 18.8183 28.1252 18.9609 28.1252Z" fill="#A7C5AA"/>
</g>
<defs>
<clipPath id="clip0_522_1655">
<rect width="47.8995" height="55.2516" fill="white"/>
</clipPath>
</defs>
</svg>
