<svg width="140" height="53" viewBox="0 0 140 53" fill="none" xmlns="http://www.w3.org/2000/svg">
<path fill-rule="evenodd" clip-rule="evenodd" d="M12.5787 12.7695C11.3583 20.5761 10.3146 27.3722 9.35017 32.8566C8.1492 39.691 6.82854 44.33 4.20811 45.8544C3.63615 43.6088 0.975358 43.1267 0.285111 44.9561C-1.0759 48.5596 5.3409 50.7074 8.1492 46.9877C11.7674 42.1941 11.8969 36.9673 12.7416 33.805C13.8284 33.8261 14.9292 33.7892 16.0147 33.8116C16.2735 35.3307 16.2234 39.0147 17.3618 41.992C18.162 44.0843 19.7025 45.9178 21.8136 46.7671C22.2645 46.9494 25.6934 47.6878 27.9604 46.5492C29.0946 45.9798 30.2622 45.1028 30.6407 43.1254C31.0234 41.1229 30.1926 38.4044 26.2863 38.3463C24.3171 38.3172 23.748 40.2577 23.8649 41.0317C24.0736 42.4121 25.5501 43.2931 27.3801 42.8017C26.8958 43.2297 26.7205 43.5599 25.8284 43.7885C24.9851 44.0051 24.0305 43.8585 23.4905 43.622C21.5923 42.7938 21.1136 41.4703 20.6154 40.3039C19.0025 36.5208 18.3303 13.1116 18.3637 13.031C17.8989 13.0482 14.7747 12.8395 12.5787 12.7695Z" fill="#F4FBF4"/>
<path d="M4.152 49.0238C3.31424 49.0238 2.50153 48.8336 1.82381 48.4954C0.276318 47.7253 -0.349911 46.3569 0.191432 44.9237C0.486457 44.1417 1.15583 43.6979 1.98106 43.7415C2.8564 43.785 3.8862 44.4112 4.27029 45.7043C6.80445 44.1153 8.09866 39.4075 9.25232 32.84C10.0873 28.0887 10.9738 22.4061 12.0008 15.8266L12.4809 12.7529C12.4879 12.7067 12.5296 12.6723 12.5797 12.6723H12.5825C13.7083 12.708 15.093 12.7819 16.2063 12.8401C17.2862 12.8969 18.1379 12.9418 18.3605 12.9338C18.3967 12.9338 18.4259 12.9471 18.4454 12.9735C18.4607 12.9933 18.4663 13.0171 18.4635 13.0408C18.4538 13.3486 19.0786 36.4421 20.7096 40.2661L20.7847 40.4418C21.2676 41.5831 21.7658 42.7627 23.5346 43.5341C24.0509 43.76 24.9833 43.9066 25.8057 43.6952C26.4918 43.5182 26.7381 43.2805 27.0498 42.9793C27.054 42.9753 27.0568 42.9727 27.061 42.9687C26.2288 43.1193 25.4453 42.9978 24.8274 42.6174C24.2443 42.2581 23.8686 41.698 23.7698 41.0428C23.6891 40.5065 23.9103 39.603 24.4823 38.9862C24.9387 38.4935 25.558 38.2385 26.2914 38.2491C27.9182 38.2729 29.1428 38.7471 29.9305 39.6572C30.7001 40.5462 30.9951 41.8142 30.7418 43.1391C30.3452 45.2156 29.0733 46.0953 28.0101 46.629C25.7793 47.7491 22.3461 47.0781 21.7784 46.8496C19.7814 46.0464 18.1393 44.2857 17.2723 42.0203C16.447 39.8633 16.2452 37.3615 16.0963 35.5346C16.0435 34.8834 15.9975 34.3154 15.9321 33.8993C15.4172 33.8901 14.8912 33.8941 14.3819 33.898C13.8697 33.902 13.3409 33.9046 12.8218 33.8967C12.6326 34.6206 12.4767 35.4646 12.3111 36.3562C11.7336 39.4749 11.0141 43.3544 8.23364 47.0398C7.18018 48.436 5.62713 49.0211 4.15618 49.0211L4.152 49.0238ZM1.87669 43.9277C1.18644 43.9277 0.631181 44.3187 0.377905 44.9871C-0.226061 46.5854 0.775909 47.761 1.91565 48.3277C3.71224 49.2219 6.4788 49.037 8.06804 46.9301C10.8221 43.2805 11.5374 39.4234 12.1121 36.3245C12.2833 35.3986 12.4461 34.5255 12.6451 33.7791C12.6562 33.7369 12.6966 33.7078 12.7411 33.7078H12.7425C13.2839 33.7184 13.8391 33.7144 14.3763 33.7105C14.9149 33.7065 15.4715 33.7025 16.0156 33.7131C16.0629 33.7131 16.1033 33.7474 16.1116 33.7924C16.184 34.2217 16.2341 34.824 16.2898 35.5214C16.4373 37.3377 16.6391 39.8236 17.4546 41.9569C18.3021 44.1734 19.9052 45.8932 21.8521 46.6765C22.1708 46.8046 25.6192 47.6144 27.9126 46.4625C28.9355 45.9487 30.1601 45.102 30.5414 43.1048C30.7808 41.8539 30.4927 40.6096 29.7719 39.7761C29.0232 38.9109 27.8486 38.4591 26.2831 38.4367C26.2691 38.4367 26.2538 38.4367 26.2399 38.4367C25.5831 38.4367 25.0403 38.6626 24.6256 39.1103C24.0606 39.7206 23.8964 40.5911 23.9604 41.0151C24.0509 41.6161 24.396 42.1286 24.9304 42.4589C25.5858 42.863 26.4459 42.9516 27.3518 42.7085C27.3964 42.6966 27.4423 42.7151 27.4659 42.7534C27.4896 42.7917 27.4812 42.8393 27.4478 42.8683C27.3518 42.9529 27.2683 43.0348 27.189 43.1114C26.8703 43.4205 26.5934 43.6873 25.8558 43.8775C24.9861 44.1021 23.9994 43.9462 23.4497 43.7058C21.61 42.9027 21.0728 41.6333 20.5996 40.5118L20.5245 40.3361C19.6812 38.3601 19.1078 31.0581 18.7738 25.2817C18.451 19.6811 18.2687 14.0408 18.2673 13.1241C17.9416 13.1214 17.1582 13.0805 16.1952 13.029C15.1125 12.9722 13.7709 12.9008 12.6646 12.8638L12.197 15.8544C11.17 22.4352 10.2835 28.1177 9.44853 32.8704C8.26843 39.5859 6.93387 44.3781 4.26055 45.9342C4.23272 45.95 4.19931 45.9527 4.17009 45.9408C4.14087 45.9289 4.1186 45.9051 4.11164 45.876C3.78322 44.5895 2.79934 43.9713 1.97132 43.9303C1.93931 43.929 1.9087 43.9277 1.87669 43.9277Z" fill="#F4FBF4"/>
<path fill-rule="evenodd" clip-rule="evenodd" d="M126.565 12.7692C127.785 20.5758 128.829 27.3719 129.793 32.8563C130.994 39.6907 132.315 44.3298 134.935 45.8541C135.507 43.6085 138.168 43.1264 138.858 44.9559C140.219 48.5593 133.802 50.7071 130.994 46.9874C127.376 42.1939 127.246 36.967 126.403 33.8047C125.316 33.8259 124.215 33.7889 123.129 33.8113C122.87 35.3304 122.92 39.0144 121.782 41.9918C120.981 44.0841 119.441 45.9175 117.33 46.7668C116.879 46.9491 113.45 47.6875 111.183 46.5489C110.049 45.9796 108.881 45.1025 108.503 43.1251C108.12 41.1226 108.951 38.4042 112.857 38.346C114.825 38.317 115.395 40.2574 115.277 41.0314C115.068 42.4118 113.593 43.2928 111.762 42.8015C112.245 43.2294 112.421 43.5597 113.313 43.7882C114.157 44.0048 115.111 43.8582 115.651 43.6217C117.55 42.7935 118.028 41.47 118.527 40.3036C120.139 36.5205 120.81 13.1114 120.778 13.0308C121.243 13.0479 124.367 12.8392 126.563 12.7692H126.565Z" fill="#F4FBF4"/>
<path d="M134.993 49.0239C133.522 49.0239 131.97 48.4387 130.915 47.0425C128.133 43.3585 127.415 39.4777 126.838 36.359C126.672 35.4674 126.516 34.6233 126.327 33.8995C125.808 33.9087 125.278 33.9047 124.766 33.9008C124.256 33.8968 123.73 33.8929 123.214 33.9021C123.148 34.3182 123.103 34.8875 123.05 35.5387C122.902 37.3642 122.699 39.866 121.875 42.0217C121.01 44.2871 119.366 46.0479 117.369 46.851C116.801 47.0795 113.37 47.7505 111.137 46.6304C110.074 46.0967 108.804 45.217 108.406 43.1406C108.152 41.8157 108.447 40.5476 109.217 39.6586C110.005 38.7485 111.229 38.2743 112.856 38.2505C113.581 38.2373 114.209 38.4949 114.665 38.9889C115.237 39.6058 115.458 40.508 115.376 41.0443C115.277 41.7008 114.902 42.2595 114.319 42.6188C113.701 43.0005 112.917 43.1207 112.085 42.9701C112.089 42.9741 112.092 42.9768 112.096 42.9807C112.408 43.2819 112.653 43.5196 113.34 43.6967C114.163 43.908 115.094 43.7614 115.611 43.5355C117.38 42.7641 117.878 41.5832 118.361 40.4419L118.435 40.2676C120.062 36.4515 120.689 13.3487 120.68 13.0423C120.677 13.0185 120.683 12.9947 120.698 12.9749C120.717 12.9498 120.751 12.9353 120.783 12.9353C121.005 12.9445 121.857 12.8983 122.936 12.8415C124.049 12.7821 125.435 12.7094 126.561 12.6737C126.616 12.6764 126.655 12.7068 126.662 12.7543L127.138 15.8056C128.167 22.3943 129.053 28.0835 129.89 32.8401C131.043 39.4077 132.337 44.1154 134.872 45.7044C135.254 44.4099 136.285 43.7852 137.159 43.7416C137.986 43.6953 138.654 44.1418 138.949 44.9238C139.49 46.357 138.866 47.7254 137.317 48.4955C136.638 48.8337 135.826 49.0239 134.988 49.0239H134.993ZM126.405 33.7092C126.451 33.7092 126.49 33.7383 126.501 33.7806C126.7 34.5269 126.861 35.4013 127.033 36.326C127.606 39.4248 128.321 43.2819 131.075 46.9316C132.664 49.0371 135.431 49.2233 137.228 48.3278C138.366 47.7611 139.368 46.5855 138.765 44.9872C138.501 44.2884 137.908 43.8921 137.173 43.9305C136.344 43.9727 135.36 44.5909 135.033 45.8762C135.026 45.9052 135.004 45.929 134.975 45.9409C134.945 45.9528 134.912 45.9501 134.884 45.9343C132.211 44.3782 130.876 39.5873 129.696 32.8705C128.86 28.1125 127.972 22.4221 126.943 15.832L126.48 12.8639C125.372 12.9009 124.032 12.9709 122.948 13.0291C121.985 13.0806 121.202 13.1215 120.876 13.1242C120.875 14.0409 120.692 19.6825 120.369 25.2818C120.037 31.0595 119.462 38.3602 118.62 40.3363L118.546 40.5106C118.072 41.6321 117.535 42.9015 115.695 43.7046C115.145 43.9437 114.159 44.1008 113.289 43.8763C112.55 43.6861 112.274 43.4193 111.954 43.1102C111.875 43.0336 111.791 42.9517 111.695 42.8671C111.662 42.8381 111.654 42.7892 111.677 42.7522C111.7 42.7139 111.747 42.6967 111.791 42.7073C112.697 42.9503 113.557 42.8618 114.211 42.4576C114.746 42.1287 115.09 41.6162 115.18 41.0139C115.244 40.5899 115.081 39.7194 114.516 39.1091C114.093 38.6521 113.538 38.4262 112.859 38.4355C111.293 38.4592 110.119 38.9097 109.37 39.7749C108.649 40.6084 108.361 41.8527 108.6 43.1036C108.983 45.1008 110.206 45.9462 111.229 46.4613C113.524 47.6145 116.971 46.8034 117.29 46.6753C119.237 45.892 120.84 44.1709 121.687 41.9557C122.503 39.8237 122.703 37.3378 122.851 35.5229C122.908 34.8241 122.956 34.2218 123.029 33.7925C123.037 33.7476 123.078 33.7145 123.125 33.7132C123.67 33.7026 124.227 33.7066 124.766 33.7106C125.303 33.7145 125.858 33.7185 126.401 33.7079H126.402L126.405 33.7092Z" fill="#F4FBF4"/>
<path fill-rule="evenodd" clip-rule="evenodd" d="M22.3385 13.2621C22.255 13.2674 22.1924 13.3334 22.1938 13.4127C22.3608 21.6551 22.0338 30.4669 22.0365 31.9741C22.0393 34.2025 21.9878 36.0319 22.0324 36.9341C22.0463 37.2115 22.1799 37.4783 22.6266 37.2894C22.7658 37.23 23.5743 36.732 23.9473 36.5709C26.0667 35.6555 27.34 36.0174 28.2683 36.2037C29.6515 36.4824 31.7529 38.2511 34.9049 38.0582C38.6387 37.8297 41.44 35.9355 41.6515 32.7653C41.7211 31.7126 41.6905 31.1908 41.2967 31.5342C39.2691 33.2963 37.4099 34.9158 34.7171 34.715C34.1117 34.6701 32.9093 34.3834 30.6799 33.2554C29.3078 32.5619 27.5084 32.6755 25.9011 32.8446C25.8496 32.8499 25.7967 32.834 25.7578 32.801C25.7188 32.768 25.6965 32.7204 25.6979 32.6702C25.7438 27.1475 25.7285 28.6613 25.7383 23.0355C25.7438 20.0621 25.7369 15.6318 25.7383 13.698C25.7383 13.5646 25.6283 13.4536 25.4878 13.4457C23.2988 13.3281 22.6544 13.2568 22.3371 13.2608L22.3385 13.2621Z" fill="#F4FBF4"/>
<path d="M34.4315 38.1659C32.486 38.1659 30.9357 37.4394 29.7792 36.8991C29.1864 36.6217 28.6757 36.3827 28.2457 36.2955C28.1844 36.2836 28.1218 36.2704 28.0578 36.2572C27.163 36.0696 25.937 35.8133 23.9873 36.6561C23.7632 36.7525 23.3652 36.9823 23.0744 37.1488C22.8503 37.2769 22.7223 37.3509 22.6652 37.3747C22.4537 37.4632 22.2812 37.4698 22.1503 37.3931C22.0181 37.3152 21.9416 37.158 21.9305 36.9374C21.904 36.3932 21.9124 35.5201 21.9221 34.4158C21.9291 33.688 21.936 32.8611 21.9346 31.9734C21.9346 31.6062 21.9527 30.8018 21.9806 29.6896C22.0641 26.1813 22.2199 19.6493 22.0933 13.4146C22.0905 13.2852 22.1949 13.1769 22.3299 13.1676C22.3424 13.1676 22.3521 13.1676 22.3633 13.1676C22.5177 13.1676 22.7376 13.1822 23.1509 13.2099C23.6269 13.2416 24.3463 13.2905 25.493 13.3526C25.6865 13.3631 25.8368 13.5164 25.8368 13.7C25.8368 14.5295 25.8368 15.8161 25.8368 17.2506C25.8368 19.1633 25.8382 21.3388 25.8368 23.0375C25.834 24.505 25.8326 25.4865 25.8326 26.2341C25.8312 28.3674 25.8298 28.5906 25.7964 32.6735C25.7964 32.696 25.8062 32.7184 25.8242 32.733C25.8423 32.7475 25.866 32.7554 25.8896 32.7528C27.4914 32.5837 29.32 32.4622 30.7269 33.1742C32.9327 34.289 34.1183 34.577 34.7251 34.6219C37.372 34.8187 39.2395 33.194 41.2198 31.4741C41.2811 31.4213 41.4355 31.2866 41.5844 31.3553C41.7779 31.4438 41.8168 31.774 41.7514 32.7726C41.5468 35.8464 38.9264 37.9083 34.9116 38.154C34.7501 38.1632 34.5901 38.1685 34.4342 38.1685L34.4315 38.1659ZM26.5576 35.8781C27.1727 35.8781 27.6737 35.9824 28.1009 36.0722L28.2874 36.1105C28.7411 36.2017 29.2643 36.4461 29.8683 36.73C31.1653 37.3377 32.7796 38.0932 34.8976 37.9638C38.8039 37.7247 41.3534 35.7314 41.5524 32.7594C41.6178 31.7806 41.5594 31.5468 41.4981 31.523C41.4981 31.523 41.4606 31.5191 41.3632 31.6023C39.3397 33.3591 37.4388 35.0115 34.7084 34.8081C34.0835 34.7619 32.8687 34.4687 30.6323 33.3379C29.2755 32.6524 27.4845 32.7713 25.9119 32.9377C25.8326 32.9456 25.7519 32.9219 25.692 32.8703C25.6322 32.8188 25.5988 32.7462 25.5988 32.6696C25.6336 28.588 25.6336 28.3647 25.635 26.2315C25.635 25.4838 25.6364 24.5024 25.6392 23.0348C25.6419 21.3362 25.6405 19.1619 25.6392 17.2493C25.6392 15.8147 25.6392 14.5269 25.6392 13.6986C25.6392 13.6154 25.5696 13.5454 25.4819 13.5401C24.3338 13.4794 23.6129 13.4305 23.137 13.3975C22.7209 13.3697 22.4927 13.3512 22.3424 13.3552C22.3132 13.3578 22.2909 13.3816 22.2923 13.4107C22.4189 19.6507 22.2631 26.1839 22.1796 29.6936C22.1531 30.8044 22.1336 31.6076 22.1336 31.9734C22.1336 32.8637 22.1267 33.6893 22.1211 34.4185C22.1114 35.5201 22.103 36.3906 22.1295 36.9295C22.1336 37.018 22.1559 37.1752 22.2547 37.2333C22.3438 37.2862 22.4829 37.2452 22.5845 37.2029C22.6332 37.1831 22.7975 37.088 22.9714 36.9876C23.2831 36.808 23.67 36.5861 23.9052 36.4844C24.9837 36.0181 25.8465 35.8781 26.5576 35.8781Z" fill="#F4FBF4"/>
<path fill-rule="evenodd" clip-rule="evenodd" d="M114.038 28.4925C114.048 28.2666 113.107 28.19 112.556 28.1649C112.338 28.1543 112.166 27.9826 112.169 27.7752C112.175 27.2006 112.184 26.099 112.191 25.424C112.194 25.107 112.468 24.8507 112.802 24.8533C113.802 24.8613 115.792 24.8771 116.837 24.885C117.016 24.8864 117.187 24.9564 117.313 25.0779C117.438 25.1994 117.507 25.3632 117.505 25.5336C117.474 27.9179 117.363 36.1524 117.327 36.9225C117.313 37.1999 117.179 37.4667 116.731 37.2778C116.592 37.2184 115.785 36.7204 115.41 36.5593C113.291 35.6439 112.016 36.0058 111.089 36.192C109.706 36.4708 107.605 38.2381 104.453 38.0466C100.719 37.8181 97.9161 35.9239 97.706 32.7537C97.6364 31.6996 97.667 31.1792 98.0608 31.5226C100.088 33.2847 101.948 34.9042 104.64 34.7034C105.246 34.6585 106.448 34.3718 108.678 33.2438C110.052 32.549 112.105 32.6124 113.733 32.7788C113.785 32.7841 113.835 32.7682 113.874 32.7365C113.913 32.7048 113.935 32.6586 113.937 32.6097C113.971 31.0788 113.989 29.7447 114.041 28.4911L114.038 28.4925Z" fill="#F4FBF4"/>
<path d="M104.921 38.1555C104.764 38.1555 104.605 38.1502 104.444 38.141C100.43 37.8953 97.8083 35.8347 97.6037 32.7596C97.5369 31.761 97.5759 31.4294 97.7707 31.3423C97.9196 31.2749 98.0741 31.4083 98.1256 31.4532C100.116 33.1823 101.987 34.8057 104.63 34.6089C105.237 34.564 106.422 34.276 108.628 33.1611C109.732 32.6024 111.406 32.4479 113.741 32.6856C113.763 32.6883 113.788 32.6803 113.805 32.6658C113.822 32.6513 113.833 32.6301 113.833 32.6077C113.843 32.1823 113.851 31.7715 113.859 31.374C113.88 30.3555 113.9 29.3939 113.937 28.4878C113.907 28.427 113.58 28.3028 112.55 28.2553C112.277 28.2434 112.066 28.0294 112.068 27.7705L112.091 25.4193C112.093 25.0508 112.416 24.7522 112.802 24.7562L116.836 24.7879C117.043 24.7892 117.237 24.8685 117.382 25.0085C117.525 25.1472 117.606 25.3387 117.601 25.5316C117.574 27.7388 117.459 36.1398 117.423 36.9231C117.412 37.1437 117.337 37.3009 117.203 37.3788C117.073 37.4554 116.899 37.4501 116.688 37.3603C116.631 37.3365 116.503 37.2626 116.279 37.1344C115.989 36.9667 115.59 36.7382 115.366 36.6417C113.417 35.799 112.191 36.0553 111.295 36.2428L111.107 36.2811C110.677 36.3683 110.165 36.6074 109.573 36.8848C108.418 37.425 106.866 38.1515 104.921 38.1515V38.1555ZM97.857 31.5126C97.7971 31.5364 97.7387 31.7702 97.8027 32.749C98.0003 35.7211 100.551 37.7143 104.457 37.9534C106.574 38.0829 108.19 37.3273 109.487 36.7197C110.091 36.437 110.613 36.1926 111.068 36.1002L111.254 36.0619C112.177 35.869 113.44 35.6048 115.451 36.474C115.687 36.5757 116.073 36.7989 116.385 36.9773C116.559 37.0776 116.723 37.1714 116.771 37.1926C116.872 37.2348 117.011 37.2745 117.1 37.2229C117.199 37.1648 117.221 37.0076 117.226 36.9191C117.262 36.1385 117.376 27.7401 117.404 25.5329C117.407 25.3889 117.347 25.2476 117.24 25.1432C117.132 25.0389 116.988 24.9807 116.833 24.9794L112.799 24.9477H112.795C112.518 24.9477 112.291 25.1604 112.288 25.4246L112.266 27.7758C112.265 27.933 112.393 28.0624 112.558 28.0704C114.149 28.1443 114.139 28.3913 114.135 28.4957C114.099 29.4005 114.078 30.3621 114.057 31.3792C114.049 31.7768 114.04 32.1876 114.03 32.613C114.029 32.6869 113.994 32.7583 113.934 32.8085C113.875 32.8573 113.797 32.8811 113.717 32.8732C111.421 32.6381 109.786 32.7873 108.719 33.3276C106.482 34.4583 105.267 34.7502 104.643 34.7978C101.914 35.0012 100.011 33.35 97.9975 31.6011C97.9001 31.5166 97.8612 31.5126 97.8542 31.5126H97.857Z" fill="#F4FBF4"/>
<path fill-rule="evenodd" clip-rule="evenodd" d="M34.9372 13.8895C33.3772 13.801 31.8979 14.007 30.7512 14.6067C28.3047 15.8867 28.1238 19.6248 28.3576 25.2546C28.4063 26.4341 28.7069 27.5397 28.853 27.8951C29.0298 28.3217 29.329 28.9782 30.1723 29.5951C31.1701 30.3255 32.8136 30.8315 34.5768 30.9094C35.5426 30.953 37.5354 30.6161 38.8894 29.8606C39.6256 29.4498 40.3562 28.6678 40.7097 27.9757C41.1355 27.1395 41.2288 25.4104 41.2496 24.7658C41.251 24.6998 41.2232 24.6377 41.1717 24.5915C41.1202 24.5452 41.0493 24.5201 40.9755 24.5215C40.5385 24.5254 39.5797 24.5307 38.0058 24.5109C37.8415 24.5083 37.7038 24.6219 37.6926 24.7672C37.6439 25.639 37.6732 26.6719 37.1374 27.2492C36.7909 27.623 35.7165 28.0562 34.5824 27.936C33.54 27.8251 32.4406 27.4473 32.1178 26.4804C31.8993 25.8265 31.7142 25.2149 31.6947 24.3339C31.6599 22.6273 31.6585 20.9735 31.8047 19.5297C31.9049 18.5404 32.0496 17.7465 32.641 17.2802C33.4677 16.6277 34.9553 16.5788 36.1354 17.0345C36.5473 17.1931 37.2084 17.5774 37.3948 18.0332C37.7038 18.7861 37.726 20.029 37.7358 20.5587C37.7414 20.675 37.8485 20.7674 37.9807 20.7688C38.7698 20.7912 41.0256 20.8652 41.2176 20.7978C41.3178 20.7635 41.315 19.2576 41.1703 18.1534C41.0339 17.1138 40.263 16.0042 39.6047 15.4257C38.1825 14.1761 36.212 13.9621 34.9344 13.8908L34.9372 13.8895Z" fill="#F4FBF4"/>
<path d="M34.7428 31.0079C34.6816 31.0079 34.6245 31.008 34.5717 31.004C32.8126 30.9247 31.1455 30.4267 30.1115 29.6699C29.2069 29.0081 28.9049 28.2789 28.7602 27.9302C28.6183 27.5868 28.3079 26.4812 28.2578 25.2593C28.0032 19.1224 28.3107 15.7778 30.7029 14.5256C31.7954 13.9537 33.2621 13.7014 34.9418 13.7965C36.2987 13.8731 38.2636 14.1188 39.6734 15.3565C40.3427 15.9456 41.129 17.0684 41.2696 18.141C41.335 18.6416 41.3781 19.2901 41.3851 19.874C41.3962 20.8343 41.3197 20.8607 41.2515 20.8845C41.09 20.9413 39.9684 20.9201 38.2121 20.8686L37.977 20.862C37.7961 20.8607 37.6458 20.7286 37.636 20.5635C37.6263 20.0299 37.6026 18.8014 37.3006 18.067C37.1155 17.6152 36.4323 17.2507 36.0955 17.1212C34.8889 16.6562 33.4611 16.7527 32.7027 17.3524C32.121 17.812 31.9916 18.6482 31.9025 19.5385C31.7494 21.0496 31.762 22.8091 31.7926 24.3321C31.8107 25.188 31.9846 25.7745 32.2101 26.4521C32.5343 27.427 33.6838 27.7453 34.5911 27.8417C35.6975 27.9593 36.737 27.5366 37.0613 27.1866C37.5066 26.7071 37.5414 25.8881 37.5762 25.0969C37.5817 24.9833 37.5859 24.871 37.5915 24.7627C37.6054 24.5672 37.7835 24.4166 37.9992 24.4166H38.0048C39.4688 24.4351 40.4276 24.4324 40.9731 24.4272H40.9801C41.0761 24.4272 41.1694 24.4615 41.2375 24.5236C41.3099 24.5883 41.3489 24.6781 41.3461 24.7693C41.3238 25.4641 41.2264 27.172 40.7964 28.0187C40.4248 28.7492 39.6594 29.5404 38.9372 29.9446C37.5984 30.6923 35.7239 31.0106 34.74 31.0106L34.7428 31.0079ZM34.2613 13.9642C32.8989 13.9642 31.7119 14.2112 30.799 14.6894C28.5111 15.8875 28.2105 19.3245 28.4568 25.2501C28.5055 26.4363 28.8131 27.5392 28.9453 27.8602C29.0942 28.2195 29.3711 28.8892 30.2326 29.5206C31.2359 30.255 32.8613 30.7385 34.5814 30.8164C35.479 30.856 37.4523 30.5549 38.8398 29.7795C39.5314 29.3938 40.2634 28.6343 40.6211 27.9342C41.0469 27.0981 41.1346 25.295 41.1513 24.7614C41.1513 24.7231 41.136 24.6861 41.104 24.6583C41.0706 24.6293 41.0232 24.6068 40.9773 24.6134C40.429 24.6187 39.4702 24.6213 38.0034 24.6028C38.0034 24.6028 38.002 24.6028 38.0006 24.6028C37.8893 24.6028 37.7975 24.6768 37.7919 24.7719C37.7863 24.8789 37.7807 24.9899 37.7766 25.1035C37.7432 25.8894 37.7042 26.7797 37.213 27.3094C36.872 27.6766 35.7991 28.1574 34.5717 28.028C33.6059 27.9249 32.3812 27.5789 32.0236 26.5076C31.8009 25.8392 31.6144 25.2144 31.5964 24.3347C31.5643 22.8064 31.5532 21.039 31.7063 19.5187C31.7995 18.5887 31.9373 17.7117 32.5774 17.2057C33.3902 16.5651 34.9015 16.4555 36.172 16.9455C36.5617 17.0961 37.277 17.4871 37.4871 17.997C37.8016 18.7631 37.8253 20.014 37.835 20.549C37.8378 20.6177 37.9032 20.6705 37.9811 20.6718L38.2191 20.6784C38.9483 20.6996 40.834 20.7564 41.1513 20.7128C41.2097 20.4829 41.2111 19.2175 41.0733 18.1621C40.9439 17.1806 40.2036 16.0764 39.5384 15.4925C38.1913 14.309 36.3682 14.0633 34.9307 13.9814C34.7039 13.9682 34.4798 13.9629 34.2613 13.9629V13.9642Z" fill="#F4FBF4"/>
<path fill-rule="evenodd" clip-rule="evenodd" d="M14.8665 18.8522C14.8665 18.8522 14.211 24.2217 13.4094 29.5384C14.506 29.5133 14.5158 29.4856 15.8921 29.4592C15.7863 25.0526 15.707 18.8787 15.5664 18.8958L14.8665 18.8522Z" fill="#021B05"/>
<path d="M13.4116 29.6329C13.3837 29.6329 13.3559 29.6211 13.3378 29.6012C13.3183 29.5801 13.31 29.5524 13.3142 29.5246C14.106 24.27 14.7642 18.8939 14.7712 18.8411C14.7768 18.7909 14.8241 18.7539 14.877 18.7579L15.5769 18.8015C15.5992 18.8028 15.6229 18.812 15.6396 18.8252C15.7537 18.919 15.7982 20.0524 15.9193 25.9634C15.9443 27.1549 15.968 28.3609 15.9944 29.4559C15.9944 29.481 15.9847 29.5048 15.9666 29.5233C15.9485 29.5418 15.9235 29.5524 15.897 29.5524C15.1511 29.5669 14.8074 29.5827 14.4734 29.596C14.1867 29.6078 13.9167 29.6197 13.4144 29.6316H13.4116V29.6329ZM14.9563 18.9521C14.8672 19.6706 14.2549 24.591 13.5271 29.4414C13.9543 29.4308 14.202 29.4203 14.465 29.4084C14.7837 29.3939 15.1135 29.3806 15.794 29.3661C15.769 28.2962 15.7439 27.1259 15.7203 25.9674C15.6577 22.9082 15.5867 19.4566 15.499 18.9851L14.9563 18.9521ZM15.5811 18.989C15.5811 18.989 15.5756 18.989 15.5728 18.989C15.5756 18.989 15.5783 18.989 15.5811 18.989Z" fill="#F4FBF4"/>
<path fill-rule="evenodd" clip-rule="evenodd" d="M124.278 18.8521C124.278 18.8521 124.933 24.2216 125.735 29.5383C124.637 29.5132 124.629 29.4854 123.252 29.459C123.358 25.0525 123.437 18.8785 123.578 18.8957L124.278 18.8521Z" fill="#021B05"/>
<path d="M125.734 29.6323H125.731C125.227 29.6204 124.957 29.6099 124.67 29.5967C124.338 29.5821 123.994 29.5676 123.248 29.5531C123.222 29.5531 123.197 29.5425 123.179 29.524C123.16 29.5055 123.151 29.4818 123.151 29.4567C123.177 28.3563 123.202 27.1451 123.226 25.9483C123.347 20.0518 123.391 18.9197 123.506 18.826C123.522 18.8128 123.546 18.8035 123.568 18.8022L124.268 18.7586C124.321 18.7546 124.367 18.7916 124.374 18.8418C124.381 18.896 125.039 24.2708 125.831 29.5253C125.835 29.5531 125.827 29.5808 125.807 29.602C125.788 29.6218 125.761 29.6337 125.734 29.6337V29.6323ZM123.353 29.3655C124.033 29.38 124.361 29.3946 124.68 29.4078C124.942 29.4197 125.191 29.4302 125.618 29.4408C124.889 24.5904 124.277 19.67 124.189 18.9515L123.646 18.9845C123.558 19.4534 123.488 22.8983 123.426 25.9496C123.403 27.1134 123.379 28.289 123.353 29.3642V29.3655ZM123.567 18.9884H123.572C123.572 18.9884 123.57 18.9884 123.567 18.9884Z" fill="#F4FBF4"/>
<path fill-rule="evenodd" clip-rule="evenodd" d="M44.1948 14.2607C44.1016 14.2593 44.0111 14.2924 43.9443 14.3531C43.8775 14.4139 43.8386 14.4984 43.8372 14.5869C43.8233 17.2829 43.9541 30.5871 43.8107 34.4323C43.7968 34.8048 43.9429 34.7955 44.096 34.7876C44.2894 34.777 44.4926 34.7216 45.6797 34.4759C46.3087 34.3451 47.383 34.1641 47.3816 33.9937C47.3789 33.1959 47.4067 32.5143 47.4192 30.0865C47.4401 26.0036 47.2856 25.3682 47.6154 25.3471C49.7627 25.2084 50.7369 25.1476 51.1738 25.1212C51.3645 25.1304 51.5134 25.281 51.5134 25.462C51.5092 29.2834 51.4675 29.3824 51.4118 33.151C51.4118 33.2171 51.441 33.2805 51.4925 33.3227C51.5454 33.3663 51.615 33.3848 51.6832 33.3742C53.0998 33.1603 53.3837 33.1272 54.8616 32.97C54.966 32.9595 55.0453 32.8763 55.0453 32.7759C55.0899 28.2015 55.0245 29.0733 55.1581 24.4343C55.1915 23.2719 55.2889 16.1073 55.307 14.7732C55.307 14.7164 55.2847 14.6622 55.243 14.6226C55.2012 14.583 55.1442 14.5592 55.0843 14.5592C54.4428 14.5579 52.603 14.5526 51.8126 14.5486C51.7541 14.5486 51.6985 14.5698 51.6581 14.6081C51.6164 14.6477 51.5941 14.7005 51.5941 14.7547C51.6024 16.9817 51.5774 19.2233 51.5607 21.0964C51.5593 21.317 51.3714 21.4966 51.139 21.5006C50.652 21.5138 49.7808 21.5376 48.0287 21.5376C47.9244 21.5376 47.8242 21.4979 47.749 21.4279C47.6753 21.3579 47.6335 21.2628 47.6335 21.1637C47.6335 19.6711 47.6447 19.7821 47.6377 18.2141C47.6308 16.423 47.6321 15.2091 47.6335 14.6662C47.6335 14.4852 47.4832 14.3373 47.2926 14.332C46.6524 14.3148 45.2427 14.2791 44.1893 14.2567L44.1948 14.2607Z" fill="#F4FBF4"/>
<path d="M44.0314 34.8843C43.9577 34.8843 43.8783 34.8724 43.8143 34.8129C43.7378 34.7416 43.7058 34.6201 43.7127 34.4299C43.8143 31.6982 43.7767 24.1162 43.7531 19.0994C43.7433 17.0137 43.735 15.3665 43.7392 14.5872C43.7406 14.4722 43.7893 14.3653 43.8755 14.286C43.9632 14.2067 44.0759 14.1671 44.197 14.1671C45.1461 14.1869 46.4083 14.2186 47.3003 14.2411C47.5425 14.2477 47.7387 14.4392 47.7373 14.6691C47.7359 15.241 47.7331 16.4615 47.7415 18.217C47.7457 19.1271 47.7429 19.4719 47.7415 19.8919C47.7401 20.1958 47.7373 20.5405 47.7373 21.1666C47.7373 21.2419 47.7679 21.3119 47.8236 21.3648C47.8779 21.4163 47.9544 21.4466 48.0323 21.4466C48.0365 21.4466 48.0421 21.4466 48.0463 21.4466C49.7858 21.4466 50.6653 21.4229 51.1371 21.4097C51.3208 21.4057 51.4627 21.2697 51.4655 21.0979L51.4724 20.3635C51.4877 18.6463 51.5058 16.6993 51.5003 14.7576C51.5003 14.6783 51.5337 14.6004 51.5935 14.5436C51.6533 14.4868 51.7341 14.4564 51.819 14.4564C52.608 14.4604 54.4477 14.4656 55.0893 14.467C55.1756 14.467 55.2577 14.5 55.3175 14.5581C55.3773 14.6162 55.4108 14.6955 55.4094 14.776C55.3899 16.1855 55.2939 23.2722 55.2605 24.4385C55.1728 27.4938 55.17 28.1423 55.1672 29.5623C55.1658 30.2994 55.163 31.2174 55.1477 32.7787C55.1477 32.9254 55.0295 33.0482 54.8764 33.0654C53.3832 33.2252 53.1104 33.2569 51.7021 33.4696C51.6046 33.4841 51.5058 33.4577 51.4307 33.3956C51.3556 33.3335 51.3138 33.245 51.3152 33.1512C51.3347 31.8488 51.3528 30.985 51.3681 30.2545C51.3959 28.8755 51.4154 27.964 51.4182 25.4635C51.4182 25.3315 51.3096 25.2231 51.1719 25.2165C50.7335 25.243 49.7357 25.3064 47.6246 25.4424C47.4896 25.4517 47.4952 25.9298 47.5091 27.2085C47.516 27.8914 47.5272 28.8279 47.5202 30.0894C47.5133 31.4301 47.5021 32.2385 47.4938 32.8289C47.4868 33.2992 47.4827 33.64 47.484 33.9953C47.484 34.1842 47.1194 34.2886 46.0228 34.5052C45.9101 34.5276 45.8016 34.5488 45.7028 34.5699C45.3521 34.6426 45.0863 34.6994 44.8831 34.7416C44.3946 34.8447 44.2485 34.8764 44.1038 34.883C44.0815 34.883 44.0579 34.8856 44.0328 34.8856L44.0314 34.8843ZM44.1887 14.3547C44.1233 14.3547 44.0606 14.3785 44.0133 14.422C43.9646 14.4656 43.9382 14.5264 43.9368 14.5898C43.9326 15.3678 43.941 17.015 43.9507 19.0994C43.9744 24.1175 44.0119 31.7009 43.9103 34.4365C43.9034 34.6135 43.9382 34.665 43.9535 34.6795C43.9744 34.6994 44.0189 34.698 44.0899 34.6954C44.2207 34.6888 44.364 34.6584 44.84 34.558C45.0445 34.5144 45.3103 34.4589 45.661 34.3863C45.7598 34.3665 45.8684 34.344 45.9825 34.3216C46.4027 34.2384 47.1765 34.0851 47.2864 33.9795C47.2864 33.6268 47.2906 33.2899 47.2962 32.825C47.3045 32.2359 47.3157 31.4275 47.3226 30.0867C47.3296 28.8266 47.3184 27.8914 47.3115 27.2085C47.2934 25.5322 47.2906 25.2747 47.6121 25.2535C49.7232 25.1175 50.721 25.0541 51.1719 25.0276C51.4265 25.0395 51.6172 25.2311 51.6172 25.4622C51.6144 27.964 51.5963 28.8755 51.5671 30.2558C51.5518 30.9863 51.5337 31.8502 51.5142 33.1512C51.5142 33.1896 51.5309 33.2265 51.5615 33.2516C51.5921 33.2767 51.6325 33.2873 51.6728 33.282C53.0853 33.0694 53.3595 33.0363 54.8555 32.8765C54.9098 32.8712 54.9515 32.8276 54.9515 32.7748C54.9668 31.2148 54.9696 30.2968 54.971 29.5597C54.9752 28.1384 54.9766 27.4885 55.0642 24.4319C55.0976 23.2669 55.1937 16.1802 55.2131 14.7721C55.2131 14.7404 55.2006 14.71 55.177 14.6875C55.1533 14.6651 55.1227 14.6519 55.0893 14.6519C54.4477 14.6506 52.608 14.6453 51.8176 14.6413C51.7856 14.6413 51.7563 14.6532 51.7341 14.6743C51.7118 14.6955 51.6993 14.7245 51.6993 14.7549C51.7062 16.698 51.6881 18.645 51.6714 20.3635L51.6645 21.0979C51.6617 21.3714 51.4349 21.5906 51.1454 21.5959C50.6709 21.6091 49.79 21.6329 48.0476 21.6329H48.0323C47.9029 21.6329 47.7763 21.5827 47.6844 21.4968C47.5912 21.4083 47.5397 21.2908 47.5397 21.1653C47.5397 20.5379 47.5425 20.1931 47.5439 19.8893C47.5467 19.4692 47.548 19.1258 47.5439 18.217C47.5369 16.4615 47.5383 15.2397 47.5397 14.6677C47.5397 14.5396 47.4311 14.4313 47.2948 14.4273C46.4027 14.4036 45.1419 14.3719 44.1928 14.3534H44.1873L44.1887 14.3547Z" fill="#F4FBF4"/>
<path fill-rule="evenodd" clip-rule="evenodd" d="M57.9817 14.6069C57.8634 14.6069 57.7674 14.6954 57.766 14.8076C57.6505 23.4821 57.6366 23.8863 57.6338 32.3256C57.6338 32.4299 57.6783 32.529 57.7576 32.6003C57.837 32.6716 57.9441 32.7086 58.0527 32.7034C65.0386 32.3084 67.3028 32.2595 68.0279 32.2635C68.1072 32.2833 68.1921 32.2648 68.2561 32.2159C68.3201 32.1671 68.3577 32.0931 68.3563 32.0138C68.341 31.4009 68.302 29.8753 68.2867 29.2663C68.2825 29.1237 68.1601 29.0101 68.0084 29.0114C67.4963 29.0154 66.3663 29.0299 65.6273 29.0695C64.3554 29.1382 62.1134 29.2901 61.298 29.3469C61.2186 29.3522 61.1407 29.3258 61.0822 29.2756C61.0238 29.2241 60.9904 29.1527 60.9904 29.0761C60.989 28.73 60.9848 28.1594 60.9807 27.8477C60.9654 26.7104 60.9904 25.8505 61.0057 25.4463C61.0127 25.3023 61.1337 25.1874 61.2854 25.1794C62.2317 25.1332 65.4005 24.9787 66.1631 24.9417C66.2563 24.9377 66.3301 24.8651 66.3315 24.7752C66.3384 24.2733 66.3621 22.7133 66.3718 22.0806C66.3718 22.0093 66.344 21.9419 66.2911 21.8917C66.2382 21.8415 66.1659 21.8138 66.0921 21.8151C65.438 21.827 63.7027 21.8574 61.3355 21.8983C61.2562 21.8996 61.1797 21.8706 61.124 21.819C61.0669 21.7675 61.0349 21.6949 61.0349 21.6196C61.0238 20.0952 61.0377 18.6277 61.0433 18.0227C61.0461 17.8629 61.1811 17.7321 61.3508 17.7308C62.524 17.7136 66.7601 17.6516 67.9736 17.6331C68.1531 17.6304 68.2978 17.4891 68.295 17.3187C68.2867 16.7428 68.2686 15.5064 68.27 14.8394C68.27 14.7733 68.2422 14.7099 68.1935 14.6623C68.1448 14.6148 68.078 14.5884 68.0084 14.5884C66.6724 14.5857 64.9023 14.6716 57.9831 14.6042L57.9817 14.6069Z" fill="#F4FBF4"/>
<path d="M58.0323 32.7993C57.9042 32.7993 57.7818 32.7531 57.6885 32.6698C57.5897 32.5813 57.5341 32.4559 57.5341 32.3264C57.5354 24.5013 57.548 23.6005 57.6426 16.5798L57.6663 14.8072C57.669 14.6447 57.8096 14.5139 57.9794 14.5139H57.9822C63.0658 14.5628 65.38 14.5298 66.7619 14.51C67.2587 14.5033 67.6512 14.4967 68.0061 14.4981C68.1007 14.4981 68.1939 14.535 68.2607 14.5998C68.3289 14.6658 68.3651 14.7517 68.3651 14.8428C68.3651 15.502 68.3818 16.7159 68.3901 17.2984V17.3208C68.3929 17.5441 68.2051 17.7277 67.9713 17.7316L61.3485 17.8294C61.233 17.8307 61.1412 17.9192 61.1398 18.0289C61.1314 18.7408 61.1203 20.1542 61.1314 21.6231C61.1314 21.6732 61.1537 21.7208 61.1899 21.7551C61.2274 21.7908 61.2775 21.808 61.3304 21.808C63.699 21.7657 65.4343 21.7353 66.087 21.7248C66.1886 21.7261 66.2874 21.7604 66.3584 21.8291C66.4293 21.8965 66.4697 21.9903 66.4683 22.0867L66.428 24.7814C66.4252 24.9201 66.3097 25.0336 66.1649 25.0403L61.2873 25.278C61.1857 25.2833 61.1064 25.3586 61.1022 25.455C61.0855 25.8632 61.0618 26.7178 61.0771 27.8512C61.0813 28.1629 61.0841 28.7335 61.0869 29.0809C61.0869 29.1298 61.1091 29.1773 61.1481 29.2117C61.1857 29.2447 61.2386 29.2619 61.2901 29.2592C62.1765 29.1985 64.3725 29.0492 65.6208 28.9819C66.3431 28.9422 67.4258 28.9277 68.0075 28.9237C68.2148 28.9198 68.3818 29.0783 68.386 29.2711L68.4556 32.0186C68.4569 32.1256 68.4055 32.23 68.3192 32.296C68.2343 32.3607 68.1229 32.3858 68.0172 32.3634C67.2643 32.3581 64.9834 32.4109 58.0601 32.8032C58.0517 32.8032 58.0434 32.8032 58.0336 32.8032L58.0323 32.7993ZM57.9794 14.7028C57.9167 14.7028 57.8653 14.7504 57.8639 14.8098L57.8402 16.5825C57.7456 23.6018 57.7345 24.504 57.7317 32.3277C57.7317 32.4056 57.7651 32.4809 57.8249 32.5338C57.8847 32.5879 57.9655 32.617 58.0462 32.6117C65.0085 32.2181 67.2908 32.1652 68.0269 32.1718C68.0353 32.1718 68.0436 32.1719 68.0506 32.1745C68.0993 32.1864 68.1536 32.1745 68.1925 32.1454C68.2329 32.1151 68.2552 32.0675 68.2552 32.0186L68.1856 29.2725C68.1828 29.1813 68.1049 29.1087 68.0088 29.1087H68.0075C67.4271 29.1139 66.3486 29.1285 65.6305 29.1668C64.3836 29.2341 62.189 29.3834 61.304 29.4442C61.1954 29.4508 61.0911 29.4164 61.0131 29.3477C60.9352 29.2791 60.8893 29.1813 60.8893 29.0796C60.8879 28.7335 60.8837 28.1629 60.8795 27.8512C60.8642 26.7139 60.8893 25.8553 60.9046 25.4458C60.9143 25.2516 61.0744 25.0984 61.2789 25.0878L66.1566 24.85C66.1969 24.8474 66.2303 24.8157 66.2303 24.7761L66.2707 22.0814C66.2707 22.0365 66.2526 21.9929 66.2192 21.9612C66.1858 21.9295 66.1371 21.9123 66.0912 21.9123C65.4371 21.9242 63.7017 21.9546 61.3346 21.9956C61.2316 21.9982 61.1272 21.9599 61.0507 21.8886C60.9756 21.8199 60.9324 21.7234 60.931 21.6231C60.9199 20.1529 60.931 18.7382 60.9394 18.0249C60.9422 17.8122 61.1203 17.6418 61.3443 17.6392L67.9671 17.5414C68.0923 17.5401 68.1925 17.4411 68.1911 17.3222V17.301C68.1828 16.7172 68.1647 15.502 68.1661 14.8428C68.1661 14.8019 68.1494 14.7622 68.1188 14.7319C68.0895 14.7028 68.0478 14.6869 68.0047 14.6869C67.6484 14.6856 67.2601 14.6922 66.7633 14.6988C65.38 14.7187 63.063 14.7517 57.978 14.7028H57.9794Z" fill="#F4FBF4"/>
<path fill-rule="evenodd" clip-rule="evenodd" d="M70.5571 14.6336C70.4653 14.6336 70.3776 14.6693 70.3136 14.7327C70.251 14.7948 70.2162 14.8793 70.2176 14.9665C70.315 18.8843 70.372 30.6787 70.379 32.071C70.379 32.1264 70.4027 32.1793 70.4458 32.2163C70.7547 32.2229 72.01 32.2083 73.4308 32.248C73.5199 32.2506 73.6076 32.2189 73.673 32.1595C73.7384 32.1 73.7773 32.0181 73.7773 31.9336C73.8163 29.2231 73.84 26.5905 73.8483 25.7702C73.8483 25.7015 73.8789 25.6355 73.9304 25.5866C73.9819 25.5391 74.0529 25.5126 74.1253 25.5126C74.4537 25.5179 74.995 25.5272 75.3165 25.5311C75.4751 25.5338 75.6157 25.6262 75.6741 25.7649C76.1779 26.9709 78.4922 32.5042 78.4922 32.5042C78.4922 32.5042 81.6971 32.6799 82.7714 32.8609C80.3667 27.7304 80.318 27.3342 79.3216 25.2841C79.2617 25.1507 79.3258 24.9962 79.4649 24.9354C80.5657 24.4823 80.9456 24.0847 81.2643 23.6581C81.8293 22.8999 81.9546 20.8696 81.9086 19.805C81.8725 18.9636 82.0895 15.1223 77.6837 14.7142C76.9976 14.6508 73.929 14.6085 70.5599 14.6296L70.5571 14.6336Z" fill="#F4FBF4"/>
<path d="M82.7702 32.957C82.7702 32.957 82.759 32.957 82.7535 32.9557C81.6972 32.7787 78.5187 32.603 78.4867 32.6004C78.4478 32.5977 78.4144 32.5753 78.4004 32.5409C78.4004 32.5409 76.0862 27.0076 75.5824 25.8016C75.5379 25.6973 75.4335 25.6286 75.3152 25.6259L74.1254 25.6075H74.1226C74.0781 25.6075 74.0335 25.6246 74.0015 25.6537C73.9681 25.6841 73.95 25.7263 73.95 25.7699V25.9509C73.9389 26.894 73.9152 29.3972 73.8791 31.9346C73.8791 32.0443 73.8276 32.1512 73.7441 32.2279C73.662 32.3045 73.5492 32.3468 73.431 32.3428C72.4095 32.3137 71.4729 32.3124 70.9149 32.3124C70.6964 32.3124 70.5336 32.3124 70.4473 32.3098C70.4223 32.3098 70.3986 32.3005 70.3819 32.2847C70.3193 32.2292 70.2845 32.1513 70.2845 32.0707V32.0046C70.265 28.0432 70.2093 18.4534 70.123 14.9688C70.1203 14.8579 70.1648 14.7483 70.2455 14.6677C70.3304 14.5858 70.4417 14.5409 70.5614 14.5395C73.7733 14.5184 76.974 14.5567 77.6963 14.6241C81.9157 15.0138 81.9839 18.4785 82.0062 19.6171C82.0076 19.6898 82.0089 19.7532 82.0117 19.8047C82.059 20.909 81.9227 22.9471 81.3493 23.7159C81.0362 24.1346 80.6591 24.5507 79.5082 25.0249C79.4205 25.0632 79.3788 25.165 79.4177 25.2508C79.8603 26.1583 80.1177 26.7461 80.474 27.5598C80.9193 28.5782 81.5302 29.9717 82.8676 32.8249C82.8829 32.8566 82.8773 32.8936 82.8551 32.9213C82.8356 32.9438 82.8077 32.957 82.7771 32.957H82.7702ZM78.5605 32.4168C79.0016 32.4419 81.4899 32.5858 82.6046 32.743C81.3173 29.9942 80.7217 28.6323 80.2833 27.6324C79.9285 26.8214 79.671 26.2349 79.2299 25.3274C79.1464 25.1425 79.2313 24.9351 79.4219 24.8532C80.5283 24.3975 80.8859 24.0039 81.1823 23.6076C81.7264 22.8771 81.8545 20.8918 81.8085 19.8126C81.8058 19.7598 81.8044 19.6951 81.803 19.6211C81.7821 18.5247 81.7167 15.1868 77.6726 14.813C76.9559 14.7469 73.7649 14.7086 70.5586 14.7298C70.4932 14.7298 70.4306 14.7549 70.3847 14.7998C70.3401 14.8434 70.3165 14.9041 70.3179 14.9662C70.4042 18.4534 70.4584 28.0445 70.4793 32.0059V32.072C70.4793 32.0905 70.4849 32.109 70.4946 32.1248C70.5865 32.1248 70.7298 32.1248 70.9135 32.1262C71.4743 32.1262 72.4109 32.1262 73.4365 32.1565C73.4978 32.1565 73.5618 32.1354 73.6063 32.0945C73.6536 32.0522 73.6801 31.9941 73.6815 31.9346C73.7176 29.3972 73.7413 26.894 73.751 25.9509V25.7713C73.7524 25.6788 73.7928 25.5876 73.8637 25.5216C73.9333 25.4569 74.0266 25.4212 74.124 25.4212C74.1254 25.4212 74.1282 25.4212 74.1296 25.4212L75.3208 25.4397C75.5198 25.4423 75.6951 25.5586 75.7689 25.7329C76.2434 26.8676 78.3197 31.8356 78.5633 32.4168H78.5605Z" fill="#F4FBF4"/>
<path fill-rule="evenodd" clip-rule="evenodd" d="M73.933 17.8385C73.8133 17.8438 73.7201 17.9376 73.7215 18.0511C73.734 19.1198 73.7507 21.3283 73.7604 22.0852C73.7632 22.2226 73.8745 22.3349 74.0179 22.3467C75.5445 22.4669 77.0266 22.3441 77.4232 21.9095C77.579 21.7378 77.9826 21.183 77.9979 20.1831C78.0063 19.6283 77.9464 18.9745 77.4079 18.3484C76.8679 17.7156 74.8988 17.7975 73.933 17.8398V17.8385Z" fill="#021B05"/>
<path d="M75.078 22.4837C74.7148 22.4837 74.3502 22.4678 74.0106 22.4414C73.8158 22.4256 73.6655 22.2737 73.6627 22.0887C73.6585 21.7466 73.653 21.1113 73.6474 20.4178C73.6404 19.5724 73.6321 18.6412 73.6251 18.0547C73.6237 17.8896 73.7587 17.7548 73.9327 17.7469C74.8999 17.7046 76.9136 17.6175 77.4883 18.2911C78.0422 18.9357 78.1076 19.612 78.0992 20.1866C78.0825 21.2526 77.6372 21.8232 77.5008 21.9725C77.1543 22.3529 76.1245 22.485 75.0794 22.485L75.078 22.4837ZM74.9681 17.9054C74.5687 17.9054 74.2013 17.9213 73.9396 17.9331C73.8728 17.9358 73.8214 17.9873 73.8228 18.0507C73.8297 18.6385 73.838 19.5698 73.845 20.4151C73.8506 21.1086 73.8561 21.744 73.8603 22.0848C73.8617 22.1733 73.9341 22.2459 74.0273 22.2539C75.675 22.3833 77.0096 22.2208 77.3491 21.8483C77.4744 21.711 77.8835 21.1839 77.8988 20.1827C77.9072 19.6411 77.8445 19.007 77.331 18.4087C76.9734 17.9913 75.8851 17.9067 74.9667 17.9067L74.9681 17.9054Z" fill="#F4FBF4"/>
<path fill-rule="evenodd" clip-rule="evenodd" d="M84.6121 14.576C84.5662 14.576 84.523 14.5931 84.491 14.6235C84.459 14.6539 84.4409 14.6962 84.4409 14.7384C84.4507 16.4385 84.5272 30.8813 84.5369 32.8389C84.5369 32.9644 84.6357 33.0714 84.7666 33.0899C85.8687 33.2444 86.989 33.399 88.1635 33.5575C88.2415 33.568 88.3194 33.5456 88.3792 33.4967C88.4391 33.4478 88.4739 33.3778 88.4739 33.3025C88.4808 31.024 88.5267 16.2958 88.5323 14.7081C88.5323 14.6711 88.5184 14.6354 88.4906 14.6103C88.4627 14.5839 88.4251 14.5694 88.3876 14.5694C87.7599 14.5694 85.2884 14.5733 84.6135 14.5747L84.6121 14.576Z" fill="#F4FBF4"/>
<path d="M88.2016 33.6547C88.1849 33.6547 88.1668 33.6547 88.1501 33.6508C87.1231 33.5134 86.0751 33.3681 84.7517 33.1832C84.5708 33.1581 84.4386 33.0128 84.4372 32.8397L84.3982 25.4109C84.3746 20.83 84.3468 15.7088 84.3412 14.7393C84.3412 14.6706 84.369 14.6059 84.4205 14.557C84.4706 14.5094 84.5402 14.4817 84.6125 14.4817L88.3866 14.4764C88.452 14.4764 88.5147 14.5015 88.5606 14.5451C88.6065 14.5887 88.6316 14.6468 88.6316 14.7102L88.5731 33.306C88.5731 33.4077 88.5258 33.5041 88.4451 33.5715C88.3769 33.627 88.2906 33.6574 88.203 33.6574L88.2016 33.6547ZM84.6125 14.6693C84.5931 14.6693 84.575 14.6759 84.5611 14.6891C84.5471 14.7023 84.5402 14.7195 84.5402 14.738C84.5457 15.7075 84.5722 20.8287 84.5972 25.4096L84.6362 32.8371C84.6362 32.9163 84.6988 32.9837 84.7809 32.9956C86.1044 33.1805 87.1523 33.3258 88.1779 33.4632C88.2266 33.4698 88.2767 33.4553 88.3143 33.4249C88.3518 33.3932 88.3741 33.3496 88.3741 33.302L88.4326 14.7063C88.4326 14.6944 88.4284 14.6825 88.42 14.6746C88.4117 14.6666 88.3992 14.6613 88.3866 14.6613L84.6125 14.6666V14.6693Z" fill="#F4FBF4"/>
<path fill-rule="evenodd" clip-rule="evenodd" d="M91.3577 34.1097C91.1475 34.0819 90.9944 33.9181 90.9986 33.7266C91.1642 25.7483 91.2185 16.4966 91.2282 14.8098C91.2282 14.6342 91.3841 14.4902 91.5775 14.4849C92.5113 14.4585 95.051 14.3858 95.8234 14.3647C95.9584 14.3607 96.0808 14.4347 96.1282 14.5496C96.4802 15.4029 97.9762 19.0077 99.8438 23.2491C99.8716 23.3099 99.9412 23.3443 100.012 23.3324C100.082 23.3192 100.133 23.2637 100.133 23.1976C100.086 19.009 100.037 15.2827 100.023 14.37C100.023 14.2511 100.126 14.1533 100.257 14.1494C100.917 14.1283 102.769 14.0675 103.423 14.0464C103.484 14.0437 103.543 14.0649 103.586 14.1032C103.63 14.1415 103.654 14.1943 103.654 14.2485C103.64 16.2219 103.47 31.8337 103.47 31.8337C103.321 32.1811 101.631 31.5894 100.796 30.9857C100.089 30.4732 99.5056 29.5948 98.8947 28.7653C98.4452 28.155 97.9651 27.2409 97.5532 26.3256C97.0466 25.1949 96.0294 23.0642 95.0844 20.6007C95.0608 20.54 94.9912 20.503 94.9216 20.5135C94.8507 20.5241 94.7992 20.5796 94.7992 20.6443C94.6739 26.8209 94.8312 28.62 94.731 34.3052C94.731 34.4042 94.6809 34.498 94.5946 34.5601C94.5097 34.6222 94.3984 34.6473 94.2898 34.6262C93.6218 34.4954 92.3833 34.2563 91.3563 34.1123L91.3577 34.1097Z" fill="#F4FBF4"/>
<path d="M94.3655 34.7251C94.3335 34.7251 94.3028 34.7225 94.2708 34.7159C93.8172 34.6274 92.4422 34.3579 91.3428 34.202C91.0854 34.1677 90.8934 33.9616 90.8989 33.7239C91.0562 26.159 91.1146 17.3327 91.1285 14.8071C91.1285 14.5799 91.3261 14.395 91.5753 14.3884L95.8211 14.2682C96.002 14.2655 96.1593 14.362 96.2219 14.5139C96.5086 15.2087 98.038 18.898 99.9375 23.2107C99.9459 23.2306 99.9709 23.2411 99.996 23.2372C100.018 23.2332 100.036 23.2147 100.036 23.1949C99.9904 19.1357 99.9417 15.3857 99.9264 14.3686C99.925 14.1969 100.07 14.0582 100.256 14.0529L103.422 13.9498C103.508 13.9485 103.595 13.9763 103.656 14.0317C103.719 14.0859 103.755 14.1638 103.755 14.2457C103.741 16.198 103.572 31.6765 103.571 31.8323C103.571 31.8442 103.568 31.8561 103.564 31.8667C103.543 31.9155 103.495 31.979 103.376 32.0107C102.885 32.1375 101.449 31.5734 100.738 31.0583C100.116 30.6078 99.5827 29.8734 99.0678 29.1628C98.9843 29.0479 98.9008 28.9316 98.8159 28.8167C98.4082 28.2619 97.928 27.3901 97.4646 26.3598C97.3672 26.1432 97.2517 25.8896 97.1209 25.6056C96.5782 24.4181 95.7571 22.6243 94.9931 20.631C94.9861 20.6125 94.9625 20.6006 94.9388 20.6046C94.9166 20.6085 94.8999 20.6231 94.8999 20.6416C94.8344 23.8765 94.847 25.9371 94.8581 27.929C94.8692 29.7308 94.879 31.5946 94.8317 34.3038C94.8317 34.4306 94.7676 34.5521 94.6577 34.6327C94.5756 34.6934 94.474 34.7251 94.3682 34.7251H94.3655ZM95.8322 14.4584C95.8322 14.4584 95.8281 14.4584 95.8253 14.4584L91.5794 14.5786C91.4375 14.5826 91.3261 14.6843 91.3261 14.8097C91.3122 17.3353 91.2538 26.163 91.0965 33.7292C91.0938 33.8718 91.212 33.996 91.3707 34.0171C92.477 34.173 93.8561 34.4438 94.3098 34.5323C94.3891 34.5468 94.4712 34.5296 94.5339 34.4834C94.5965 34.4385 94.6313 34.3724 94.6313 34.3024C94.6786 31.5932 94.6675 29.7321 94.6577 27.9304C94.6466 25.9371 94.634 23.8752 94.6994 20.6403C94.6994 20.5306 94.7857 20.4368 94.9054 20.4183C95.0223 20.4012 95.1364 20.4633 95.1768 20.5663C95.9394 22.5556 96.7591 24.3454 97.3004 25.5303C97.4312 25.8156 97.5467 26.0692 97.6441 26.2858C98.102 27.3042 98.5738 28.1642 98.9745 28.7084C99.0594 28.8233 99.1429 28.9395 99.2278 29.0545C99.7344 29.7532 100.259 30.4744 100.855 30.9077C101.567 31.4228 102.928 31.9288 103.321 31.8284C103.335 31.8244 103.358 31.8178 103.371 31.8059C103.379 31.0979 103.54 16.1597 103.554 14.2457C103.554 14.218 103.542 14.1902 103.52 14.1704C103.496 14.1493 103.461 14.1361 103.428 14.1387L100.262 14.2418C100.185 14.2444 100.124 14.2999 100.124 14.3672C100.139 15.3843 100.188 19.1344 100.234 23.1949C100.234 23.3059 100.149 23.4023 100.032 23.4234C99.9167 23.4445 99.7984 23.3851 99.7539 23.2847C97.8529 18.9693 96.3235 15.2787 96.0368 14.5826C96.0062 14.5073 95.9255 14.4571 95.835 14.4571L95.8322 14.4584Z" fill="#F4FBF4"/>
<path fill-rule="evenodd" clip-rule="evenodd" d="M113.584 17.2689C114.135 17.6982 114.052 20.7653 114.017 21.6147C114.013 21.6728 114.038 21.7296 114.08 21.7719C114.123 21.8141 114.183 21.8366 114.244 21.8353C115.013 21.8353 117.385 21.8392 117.427 21.797C117.523 21.6952 117.468 18.3282 117.25 17.0456C116.987 15.4883 116.379 14.5121 115.473 14.1317C112.98 13.0869 109.922 13.6588 108.893 14.1991C107.801 14.7737 107.159 15.4672 106.774 16.4512C106.23 17.8355 106.153 20.196 105.908 27.1282C105.889 27.6948 105.876 30.2574 105.823 32.001C105.806 32.602 109.404 30.8201 109.404 30.8201C109.404 30.8201 109.575 21.9489 109.752 19.8499C109.828 18.9425 110.055 17.7484 110.652 17.3428C111.117 17.0272 112.662 16.5503 113.584 17.2702V17.2689Z" fill="#F4FBF4"/>
<path d="M106.009 32.2126C105.93 32.2126 105.866 32.2007 105.823 32.1743C105.757 32.136 105.724 32.0726 105.725 31.9973C105.757 30.9432 105.774 29.5642 105.786 28.559C105.795 27.8826 105.802 27.349 105.81 27.1244L105.818 26.8933C106.058 20.0919 106.138 17.8001 106.681 16.4171C107.078 15.4027 107.746 14.6933 108.845 14.1148C109.871 13.5759 112.977 12.9814 115.512 14.0435C116.463 14.4424 117.081 15.4463 117.348 17.0287C117.543 18.1739 117.654 21.6942 117.501 21.858C117.454 21.9055 117.429 21.9293 114.286 21.928H114.243C114.158 21.9346 114.071 21.8963 114.008 21.8368C113.945 21.7747 113.912 21.6915 113.918 21.6083C113.99 19.8396 113.929 17.6601 113.521 17.3418C112.637 16.6523 111.152 17.1172 110.71 17.4184C110.106 17.8292 109.913 19.1224 109.851 19.8568C109.677 21.9293 109.506 30.7332 109.503 30.8217C109.503 30.856 109.483 30.8877 109.451 30.9036C108.975 31.1387 106.765 32.2126 106.008 32.2126H106.009ZM112.317 13.6406C110.837 13.6406 109.533 13.9695 108.941 14.2799C107.886 14.8347 107.246 15.5136 106.866 16.4832C106.335 17.8384 106.254 20.121 106.016 26.8999L106.008 27.131C105.999 27.3543 105.994 27.8866 105.984 28.5616C105.971 29.5681 105.955 30.9472 105.923 32.0026C106.066 32.169 107.608 31.5984 109.306 30.7609C109.321 30.0014 109.485 21.8315 109.652 19.8409C109.732 18.9044 109.958 17.6971 110.593 17.2652C111.07 16.9402 112.679 16.4422 113.646 17.1951C114.214 17.6377 114.164 20.4353 114.115 21.6176C114.114 21.6506 114.126 21.6823 114.15 21.7061C114.174 21.7285 114.207 21.7391 114.241 21.7404H114.286C116.076 21.7444 117.104 21.7338 117.347 21.714C117.406 21.29 117.363 18.3087 117.15 17.0604C116.894 15.5453 116.317 14.589 115.432 14.2178C114.427 13.7964 113.33 13.6419 112.316 13.6419L112.317 13.6406Z" fill="#F4FBF4"/>
<path fill-rule="evenodd" clip-rule="evenodd" d="M57.46 11.6659C57.3876 11.7359 57.3667 11.8402 57.4057 11.93C57.446 12.0199 57.5393 12.0793 57.6423 12.0793C61.1144 12.0727 78.2537 12.0384 82.0027 12.0304C82.1224 12.0304 82.2296 11.9617 82.2755 11.8561C82.32 11.7504 82.2922 11.6302 82.2059 11.5523C79.9278 9.47183 70.9323 1.25576 69.7174 0.146195C69.6423 0.0775072 69.5226 0.0788307 69.4488 0.148839C68.2646 1.28614 59.5154 9.6911 57.46 11.6672V11.6659Z" fill="#F4FBF4"/>
<path d="M57.6429 12.1749C57.4995 12.1749 57.3701 12.0943 57.3145 11.9675C57.2588 11.842 57.288 11.6967 57.3896 11.6003L69.3785 0.0819229C69.4898 -0.0250709 69.6735 -0.0277099 69.7876 0.0766421C70.5307 0.75559 74.1824 4.09089 77.429 7.05633L82.2761 11.4827C82.3916 11.5884 82.4278 11.7482 82.3693 11.8896C82.3081 12.0322 82.1647 12.1234 82.0047 12.1234L57.6443 12.1722L57.6429 12.1749ZM69.5858 0.188916C69.5622 0.188916 69.5385 0.198164 69.5204 0.215336L57.5315 11.7337C57.487 11.776 57.4745 11.8394 57.4981 11.8962C57.5232 11.9516 57.5789 11.9873 57.6429 11.9873L82.0033 11.9384C82.0826 11.9384 82.1536 11.8935 82.1842 11.8222C82.2135 11.7522 82.1954 11.6742 82.1383 11.6214L77.2913 7.19503C74.0446 4.22959 70.3916 0.894285 69.6498 0.215336C69.6317 0.199485 69.6095 0.191561 69.5858 0.191561V0.188916Z" fill="#F4FBF4"/>
<path fill-rule="evenodd" clip-rule="evenodd" d="M40.3177 39.8273C40.2147 39.5394 40.3552 39.2237 40.6461 39.0929C41.1262 38.8776 41.8972 38.554 42.7252 38.2739C43.819 37.9041 44.4188 37.6901 45.5516 37.3982C49.0167 36.5079 59.8853 34.6494 69.7715 34.5595C69.9106 43.4215 69.4584 34.7154 69.6087 43.2683C69.6114 43.44 69.5238 43.6025 69.3762 43.7029C66.1198 45.9286 53.8874 54.7761 43.8886 45.5257C41.9236 43.7082 40.7435 40.9514 40.3204 39.826L40.3177 39.8273Z" fill="#F4FBF4"/>
<path d="M54.0987 49.7557C50.255 49.7557 46.8107 48.3648 43.8159 45.5936C41.8329 43.7588 40.643 40.9717 40.2227 39.8582C40.2227 39.8582 40.2227 39.8582 40.2227 39.8568C40.1045 39.524 40.2673 39.1581 40.6013 39.0075C40.9979 38.8305 41.7967 38.487 42.6887 38.1846L43.0088 38.0762C43.9078 37.7711 44.5006 37.5703 45.5221 37.3075C49.2141 36.3591 60.1161 34.5534 69.767 34.4649C69.8213 34.4688 69.8658 34.5058 69.8672 34.5573C69.9368 38.9362 69.8603 39.0088 69.7809 39.0854C69.7614 39.1052 69.7392 39.1145 69.7211 39.1184C69.6626 39.3377 69.6571 40.6296 69.703 43.2661C69.7058 43.4695 69.6028 43.6611 69.4288 43.7786L69.1491 43.9701C67.2997 45.2409 63.4518 47.8853 58.8024 49.1111C57.1756 49.5404 55.6058 49.7544 54.0973 49.7544L54.0987 49.7557ZM40.4092 39.7961C40.8239 40.8977 41.9999 43.6518 43.9537 45.4588C53.6255 54.4053 65.2234 46.4376 69.0336 43.8182L69.3133 43.6254C69.4358 43.5435 69.5068 43.4101 69.5054 43.2687C69.433 39.1145 69.5012 39.0484 69.5805 38.9718C69.6 38.952 69.6223 38.9428 69.6404 38.9388C69.7211 38.6429 69.6974 36.3921 69.6696 34.6538C60.0618 34.7528 49.2447 36.5466 45.5736 37.4884C44.5604 37.7487 43.9704 37.9494 43.0756 38.2533L42.7541 38.3616C41.869 38.6614 41.0772 39.0009 40.6834 39.1766C40.4398 39.2862 40.3202 39.5517 40.4064 39.7948L40.4092 39.7961Z" fill="#F4FBF4"/>
<path fill-rule="evenodd" clip-rule="evenodd" d="M98.9109 39.8335C99.0125 39.5455 98.8719 39.2311 98.5838 39.1004C98.1037 38.8851 97.3328 38.5601 96.5061 38.2801C95.4123 37.9089 94.8139 37.6949 93.6825 37.4043C90.2202 36.514 79.339 34.641 69.4626 34.5512C69.3221 43.4224 69.7966 34.7189 69.6477 43.2824C69.6449 43.4541 69.7326 43.6166 69.8801 43.717C73.1337 45.944 85.3564 54.802 95.3455 45.5425C97.3091 43.7222 98.4878 40.9615 98.9109 39.8361V39.8335Z" fill="#F4FBF4"/>
<path d="M85.1417 49.7755C83.6345 49.7755 82.0675 49.5615 80.4407 49.1309C75.7955 47.9038 71.9504 45.2566 70.1023 43.9846L69.8226 43.7931C69.6486 43.6755 69.5457 43.484 69.5485 43.2819C69.5777 41.6215 69.6055 39.4143 69.5234 39.125C69.3495 39.1025 69.2952 38.8357 69.3634 34.5507C69.3634 34.4991 69.4079 34.4582 69.4622 34.4582C79.0881 34.5454 90.0026 36.3616 93.7071 37.3153C94.7272 37.5782 95.3214 37.7803 96.219 38.0854L96.5377 38.1937C97.4283 38.4962 98.2271 38.8397 98.6251 39.018C98.9591 39.1686 99.1219 39.5331 99.0037 39.866C99.0037 39.866 99.0037 39.866 99.0037 39.8673C98.5848 40.9822 97.3949 43.7733 95.4132 45.6093C92.4212 48.3832 88.9784 49.7755 85.1389 49.7755H85.1417ZM69.5972 38.9414C69.7697 38.9625 69.8184 39.2095 69.7475 43.2845C69.7461 43.4259 69.817 43.558 69.9381 43.6412L70.2178 43.834C74.0253 46.4547 85.6134 54.433 95.2755 45.4759C97.2279 43.6663 98.4025 40.9082 98.8172 39.8053C98.9035 39.5635 98.7838 39.298 98.5402 39.1884C98.1464 39.0127 97.3546 38.6706 96.4723 38.3721L96.1536 38.2637C95.2602 37.9599 94.6687 37.7592 93.6556 37.4989C89.972 36.5518 79.1423 34.7488 69.5596 34.6497C69.5318 36.3933 69.5081 38.6521 69.5958 38.944L69.5972 38.9414Z" fill="#F4FBF4"/>
<path fill-rule="evenodd" clip-rule="evenodd" d="M69.6917 46.5085C67.4887 48.2125 65.0548 49.5176 63.7383 49.9984C63.3445 50.4713 66.9042 52.6112 69.6541 52.5108C73.726 52.3628 75.6673 50.5968 75.9234 50.0407C73.9751 49.3551 71.7749 48.2455 69.6917 46.5085Z" fill="#F4FBF4"/>
<path d="M69.4719 52.6083C67.0936 52.6083 64.0696 51.0219 63.6591 50.2545C63.5756 50.0973 63.6146 49.9969 63.6619 49.9401C63.673 49.9269 63.6869 49.9163 63.7036 49.9111C65.0104 49.4342 67.4234 48.1437 69.6306 46.4357C69.6681 46.4067 69.7224 46.408 69.7586 46.4384C71.5914 47.9667 73.6774 49.1489 75.9583 49.952C75.9833 49.9612 76.0042 49.9797 76.0153 50.0035C76.0265 50.0273 76.0265 50.055 76.0153 50.0788C75.7273 50.7023 73.6872 52.4591 69.6584 52.6057C69.5972 52.6083 69.5345 52.6097 69.4719 52.6097V52.6083ZM63.8094 50.0735C63.8038 50.1026 63.8219 50.1435 63.8358 50.1686C64.1977 50.8449 67.2815 52.5027 69.65 52.4155C73.4019 52.2794 75.3724 50.7472 75.7843 50.0907C73.548 49.2902 71.4981 48.1265 69.6904 46.6312C67.5028 48.3127 65.1245 49.5861 63.8094 50.0735Z" fill="#F4FBF4"/>
<path d="M69.7723 10.7021C69.5009 10.7021 69.2797 10.4947 69.2769 10.2371C69.263 9.08659 69.2532 8.03647 69.2449 7.11183C69.2282 5.22557 69.2171 3.86239 69.1767 3.19137C69.1614 2.93247 69.3701 2.71056 69.6443 2.69603C69.917 2.68282 70.1508 2.87963 70.1661 3.13985C70.2065 3.83333 70.219 5.20576 70.2357 7.10523C70.2441 8.02987 70.2524 9.07734 70.2677 10.2279C70.2705 10.4881 70.052 10.7007 69.7779 10.7034H69.7723V10.7021Z" fill="#021B05"/>
<path d="M72.0268 10.5714C71.9976 10.5714 71.9684 10.5687 71.9392 10.5635C71.6692 10.5172 71.4897 10.2729 71.5384 10.0179C71.6678 9.32972 71.8195 8.59794 71.967 7.88861C72.1131 7.18588 72.2634 6.4607 72.3914 5.78175C72.4401 5.5255 72.6962 5.3551 72.9662 5.40133C73.2362 5.44756 73.4157 5.69193 73.367 5.94687C73.2375 6.63374 73.0859 7.36421 72.9397 8.06957C72.7936 8.77362 72.6433 9.50144 72.5153 10.1817C72.4722 10.4089 72.2634 10.5701 72.0282 10.5701L72.0268 10.5714Z" fill="#021B05"/>
<path d="M74.3538 10.6661C74.2842 10.6661 74.2146 10.6529 74.1478 10.6238C73.8987 10.5155 73.7888 10.2368 73.9029 10.0003L74.9995 7.72178C75.1136 7.48533 75.4072 7.38098 75.6563 7.48929C75.9054 7.59761 76.0154 7.87632 75.9013 8.11276L74.8047 10.3913C74.7212 10.5644 74.5416 10.6661 74.3538 10.6661Z" fill="#021B05"/>
<path d="M76.7548 10.9201C76.6351 10.9201 76.5141 10.8791 76.4194 10.7959C76.2176 10.6203 76.2051 10.3217 76.3916 10.1315L77.2586 9.23858C77.4437 9.04705 77.7582 9.03516 77.9586 9.21216C78.1604 9.38784 78.1729 9.68637 77.9864 9.87658L77.1194 10.7695C77.022 10.8699 76.8884 10.9214 76.7548 10.9214V10.9201Z" fill="#021B05"/>
<path d="M67.474 10.7587C67.2583 10.7587 67.0607 10.6252 66.9981 10.4192C66.6989 9.43907 66.5389 8.87768 66.3969 8.38102C66.2299 7.79982 66.0866 7.29655 65.7707 6.29266C65.6928 6.04301 65.8417 5.78147 66.1047 5.7075C66.3677 5.63352 66.6433 5.77486 66.7212 6.02451C67.0399 7.04029 67.186 7.54753 67.353 8.13533C67.4935 8.62803 67.6536 9.18678 67.95 10.159C68.0265 10.4086 67.8748 10.6702 67.6118 10.7415C67.5659 10.7547 67.52 10.76 67.474 10.76V10.7587Z" fill="#021B05"/>
<path d="M64.9553 10.7577C64.7911 10.7577 64.6311 10.6811 64.5365 10.5397C63.9492 9.66265 63.6361 9.18844 63.4579 8.9203C63.3095 8.69662 63.214 8.55748 63.1713 8.50288C63.0071 8.29418 63.053 7.99962 63.2729 7.84507C63.4927 7.6892 63.8031 7.73279 63.9659 7.9415C64.0522 8.05113 64.0619 8.06566 64.2957 8.41966C64.4738 8.68781 64.7869 9.15937 65.3728 10.0365C65.5189 10.2557 65.4508 10.5463 65.2197 10.6864C65.1376 10.7365 65.0458 10.759 64.9539 10.759L64.9553 10.7577Z" fill="#021B05"/>
<path d="M62.3391 10.9724C62.2041 10.9724 62.0705 10.9196 61.9745 10.8166C61.9286 10.7664 61.6906 10.5128 61.589 10.3714C61.5682 10.345 61.461 10.238 61.3831 10.164C61.1924 9.98307 61.1938 9.68983 61.3831 9.50886C61.5737 9.32922 61.8827 9.32922 62.0733 9.50886C62.1832 9.61321 62.328 9.7572 62.3906 9.84306C62.4421 9.91306 62.6035 10.094 62.7023 10.1997C62.8818 10.3912 62.8638 10.6832 62.662 10.8535C62.5687 10.9315 62.4532 10.9711 62.3377 10.9711L62.3391 10.9724Z" fill="#021B05"/>
<path d="M69.5278 42.5796C69.2536 42.5796 69.0323 42.3695 69.0323 42.1093V36.8111C69.0323 36.5509 69.2536 36.3409 69.5278 36.3409C69.8019 36.3409 70.0232 36.5509 70.0232 36.8111V42.1093C70.0232 42.3695 69.8019 42.5796 69.5278 42.5796Z" fill="#021B05"/>
<path d="M45.435 44.0716C45.3209 44.0716 45.2068 44.0346 45.1136 43.9593C44.9048 43.7902 44.8798 43.493 45.0565 43.2962C45.8108 42.4535 46.611 41.5856 47.3165 40.8195C48.523 39.5092 49.6628 38.2715 49.8771 37.9188C50.0135 37.6929 50.3169 37.6163 50.5548 37.7458C50.7928 37.8752 50.8735 38.1632 50.7371 38.389C50.4866 38.8025 49.603 39.7681 48.0638 41.4403C47.3596 42.2038 46.5623 43.069 45.8122 43.9065C45.7134 44.0161 45.5742 44.0716 45.4336 44.0716H45.435Z" fill="#021B05"/>
<path d="M73.7091 44.5685C73.4823 44.5685 73.2778 44.4179 73.229 44.1986C72.5318 41.0416 72.4149 40.3019 71.9807 37.5478L71.8485 36.713C71.8082 36.4581 71.9933 36.2216 72.2605 36.1833C72.5277 36.1437 72.7781 36.3207 72.8185 36.5743L72.9507 37.4105C73.3821 40.1434 73.4976 40.8778 74.1893 44.0084C74.2449 44.2607 74.0751 44.5077 73.8093 44.5592C73.7759 44.5658 73.7412 44.5698 73.7078 44.5698L73.7091 44.5685Z" fill="#021B05"/>
<path d="M77.8913 46.4985C77.6868 46.4985 77.4947 46.3769 77.4237 46.1828C76.1671 42.7669 75.8902 41.899 75.2222 39.8014C74.9884 39.067 74.7073 38.182 74.3176 36.9826C74.2369 36.7343 74.3844 36.4714 74.646 36.3948C74.9077 36.3182 75.1846 36.4582 75.2653 36.7065C75.655 37.9086 75.9375 38.7949 76.1713 39.5306C76.8351 41.615 77.1092 42.4776 78.3589 45.8737C78.4494 46.1194 78.313 46.3875 78.0541 46.4734C77.9999 46.4918 77.9442 46.4998 77.8913 46.4998V46.4985Z" fill="#021B05"/>
<path d="M82.7707 48.1997C82.5815 48.1997 82.402 48.0966 82.3185 47.9223C80.4439 43.982 79.8706 42.8632 78.1658 39.5398C77.8653 38.9533 77.5285 38.2968 77.1444 37.5452C77.0247 37.3114 77.1277 37.03 77.374 36.9164C77.6203 36.8028 77.9167 36.9006 78.0364 37.1344C78.4219 37.886 78.7573 38.5425 79.0579 39.129C80.7668 42.4616 81.3415 43.5831 83.2216 47.5352C83.3343 47.7717 83.223 48.0504 82.9739 48.1574C82.9071 48.1851 82.8389 48.1997 82.7707 48.1997Z" fill="#021B05"/>
<path d="M87.0267 48.1988C86.8486 48.1988 86.6774 48.1077 86.5883 47.9491C84.8808 44.8965 84.146 43.6813 83.2164 42.1424C82.5707 41.0738 81.8401 39.8625 80.628 37.7861C80.4958 37.5589 80.5821 37.2722 80.8214 37.1467C81.0608 37.0213 81.3628 37.1031 81.495 37.3303C82.7029 39.4002 83.4321 40.6088 84.0764 41.6748C85.0102 43.2216 85.7478 44.4421 87.4637 47.508C87.5917 47.7378 87.4998 48.0218 87.2591 48.1446C87.1853 48.1816 87.106 48.2001 87.0267 48.2001V48.1988Z" fill="#021B05"/>
<path d="M90.9115 47.1372C90.7626 47.1372 90.6137 47.0738 90.5163 46.9523C87.6732 43.407 86.681 41.917 85.6317 40.3398C85.1934 39.6794 84.7383 38.9978 84.1315 38.1366C83.9799 37.9212 84.0397 37.628 84.2679 37.484C84.4948 37.3387 84.8037 37.3968 84.9554 37.6135C85.5705 38.4853 86.0283 39.1735 86.4709 39.8379C87.509 41.3979 88.4887 42.8707 91.3054 46.383C91.471 46.5904 91.4292 46.8849 91.2108 47.0421C91.1217 47.1069 91.0159 47.1386 90.9115 47.1386V47.1372Z" fill="#021B05"/>
<path d="M93.7844 44.0063C93.6508 44.0063 93.5172 43.9561 93.4198 43.8557C93.0065 43.4317 90.8495 41.21 88.9318 39.1533C88.7509 38.9591 88.769 38.6619 88.9749 38.4889C89.1795 38.3172 89.4926 38.3343 89.6749 38.5298C91.5842 40.5786 93.7357 42.7937 94.1476 43.2164C94.3327 43.4066 94.3216 43.7052 94.1198 43.8808C94.0252 43.9641 93.9041 44.0063 93.783 44.0063H93.7844Z" fill="#021B05"/>
<path d="M96.3763 42.0227C96.2761 42.0227 96.1731 41.9936 96.0854 41.9329C95.6999 41.6674 95.1641 41.3477 94.7731 41.1139C94.5657 40.9897 94.3876 40.8841 94.2721 40.8101C94.0453 40.6648 93.9854 40.3729 94.1385 40.1576C94.2916 39.9423 94.5991 39.8855 94.826 40.0308C94.9317 40.0981 95.1015 40.1998 95.3005 40.3187C95.7027 40.5591 96.2552 40.888 96.6671 41.172C96.8884 41.3239 96.9385 41.6185 96.777 41.8285C96.6796 41.9553 96.5293 42.0227 96.3749 42.0227H96.3763Z" fill="#021B05"/>
<path d="M65.4967 44.5685C65.4633 44.5685 65.4299 44.5658 65.3951 44.5579C65.1293 44.5051 64.9595 44.2581 65.0152 44.0071C65.7068 40.8779 65.8224 40.1434 66.2538 37.4118L66.386 36.5743C66.4263 36.3207 66.6754 36.1437 66.944 36.1833C67.2126 36.2216 67.3963 36.4581 67.3559 36.713L67.2237 37.5505C66.8007 40.2332 66.6726 41.0443 65.9754 44.1999C65.9267 44.4192 65.7235 44.5698 65.4953 44.5698L65.4967 44.5685Z" fill="#021B05"/>
<path d="M61.3135 46.4993C61.2593 46.4993 61.2036 46.4914 61.1507 46.4729C60.8919 46.387 60.7555 46.1189 60.8459 45.8732C62.097 42.4771 62.3712 41.6132 63.035 39.5288C63.2688 38.7931 63.5513 37.9068 63.9409 36.7061C64.0216 36.4577 64.2986 36.319 64.5602 36.3943C64.8218 36.4709 64.9679 36.7338 64.8886 36.9821C64.5004 38.1815 64.2179 39.0665 63.9841 39.7996C63.3161 41.8986 63.0405 42.7664 61.7825 46.1823C61.7115 46.3764 61.5195 46.498 61.3149 46.498L61.3135 46.4993Z" fill="#021B05"/>
<path d="M56.4976 48.0644C56.4294 48.0644 56.3598 48.0512 56.2944 48.0222C56.0453 47.9152 55.934 47.6365 56.0467 47.4C57.9031 43.4994 58.4709 42.3925 60.159 39.1047C60.4568 38.5248 60.788 37.8776 61.1693 37.1352C61.289 36.9014 61.5854 36.8037 61.8317 36.9173C62.078 37.0309 62.181 37.3122 62.0613 37.546C61.6814 38.2897 61.3488 38.937 61.051 39.5168C59.3685 42.7953 58.8021 43.9009 56.9513 47.7884C56.8692 47.9627 56.6882 48.0658 56.499 48.0658L56.4976 48.0644Z" fill="#021B05"/>
<path d="M52.1783 48.1993C52.1003 48.1993 52.0196 48.1821 51.9459 48.1438C51.7037 48.0223 51.6119 47.737 51.7413 47.5071C53.4572 44.4413 54.1947 43.2208 55.1285 41.674C55.7715 40.608 56.5021 39.4007 57.71 37.3295C57.8422 37.1023 58.1442 37.0204 58.3835 37.1459C58.6229 37.2714 58.7092 37.558 58.577 37.7852C57.3649 39.8617 56.6343 41.073 55.9886 42.1416C55.0589 43.6804 54.3256 44.8957 52.6166 47.9483C52.5276 48.1068 52.3564 48.1979 52.1783 48.1979V48.1993Z" fill="#021B05"/>
<path d="M48.5238 46.8466C48.4194 46.8466 48.3137 46.8149 48.2246 46.7515C48.0061 46.5943 47.9644 46.2997 48.1286 46.0924C50.8422 42.695 51.7872 41.271 52.7863 39.7639C53.2122 39.1206 53.6533 38.4548 54.2462 37.6121C54.3979 37.3955 54.7068 37.3374 54.9336 37.4813C55.1618 37.6253 55.2231 37.9172 55.0714 38.1339C54.4855 38.9674 54.0486 39.6265 53.6255 40.2645C52.6138 41.7902 51.6591 43.2313 48.9176 46.6603C48.8202 46.7819 48.6727 46.8466 48.5224 46.8466H48.5238Z" fill="#021B05"/>
<path d="M43.102 41.6597C42.9308 41.6597 42.7652 41.5752 42.6734 41.4246C42.5356 41.2 42.6177 40.9121 42.8543 40.7813C43.2064 40.5871 43.6586 40.3731 44.0205 40.2001C44.1902 40.1195 44.3336 40.0508 44.424 40.0046C44.6648 39.8818 44.9654 39.9676 45.0948 40.1961C45.2242 40.4247 45.1338 40.71 44.893 40.8328C44.7984 40.8817 44.6453 40.9543 44.4658 41.0402C44.1332 41.1987 43.6781 41.4153 43.3511 41.595C43.2731 41.6386 43.1883 41.6584 43.1034 41.6584L43.102 41.6597Z" fill="#021B05"/>
<path fill-rule="evenodd" clip-rule="evenodd" d="M46.6557 37.8407C46.6557 37.8407 61.0284 35.0311 69.3838 35.1658C77.6932 35.2992 92.6935 37.628 92.6935 37.628L95.4545 45.1955C95.4545 45.1955 81.4687 41.5273 69.6983 41.2301C59.1706 40.9646 43.9281 44.9525 43.9281 44.9525L46.6543 37.842L46.6557 37.8407Z" fill="#F4FBF4"/>
<path d="M94.148 45.0514C94.013 45.0514 93.8766 44.9986 93.7792 44.8956C93.5746 44.6789 93.281 44.4081 93.0681 44.21C92.9526 44.103 92.8551 44.0132 92.7953 43.9537C92.6046 43.7662 92.6102 43.469 92.8078 43.288C93.0054 43.107 93.3186 43.1123 93.5092 43.2999C93.5649 43.3554 93.6553 43.4373 93.7611 43.5363C93.9851 43.7437 94.2899 44.0264 94.5181 44.2655C94.7018 44.4583 94.6851 44.7555 94.4806 44.9299C94.3859 45.0105 94.2676 45.0501 94.1494 45.0501L94.148 45.0514Z" fill="#021B05"/>
<path d="M45.4343 44.6769C45.3147 44.6769 45.1936 44.6359 45.099 44.5527C44.8972 44.377 44.8846 44.0798 45.0697 43.8883C45.3063 43.6439 45.6264 43.3546 45.8602 43.1433C45.9715 43.0429 46.0647 42.9584 46.1232 42.9016C46.3152 42.7166 46.6298 42.7153 46.8246 42.8976C47.0194 43.0799 47.0208 43.3784 46.8287 43.5633C46.7647 43.6241 46.6632 43.7166 46.5435 43.8249C46.3194 44.027 46.0133 44.3044 45.7976 44.5263C45.7001 44.6267 45.5666 44.6782 45.433 44.6782L45.4343 44.6769Z" fill="#021B05"/>
<path d="M47.8132 39.1763C48.0095 40.1393 48.1069 40.6201 48.3031 41.583C48.0554 41.6279 47.9301 41.6517 47.6824 41.6979C47.4806 40.7363 47.3804 40.2555 47.1787 39.2939C46.828 39.3599 46.6526 39.3943 46.3019 39.463C46.2491 39.2186 46.2226 39.0971 46.1683 38.8527C47.1286 38.6638 47.6087 38.574 48.5717 38.4049C48.619 38.6506 48.644 38.7734 48.6914 39.0178C48.3393 39.0799 48.1639 39.1116 47.8132 39.175V39.1763Z" fill="#021B05"/>
<path d="M51.4082 41.0568C51.3233 40.5694 51.2815 40.3263 51.198 39.8389C50.7332 39.9116 50.5008 39.9485 50.036 40.0251C50.1251 40.5112 50.171 40.7543 50.2601 41.2417C50.011 41.2827 49.8871 41.3038 49.638 41.3461C49.407 40.1348 49.2929 39.5298 49.0619 38.3199C49.3179 38.2763 49.446 38.2538 49.702 38.2115C49.7897 38.691 49.8342 38.9314 49.9233 39.4109C50.3895 39.333 50.6233 39.296 51.0909 39.2234C51.0074 38.7425 50.9656 38.5021 50.8835 38.0227C51.1396 37.983 51.2676 37.9632 51.5251 37.9249C51.7282 39.1401 51.8298 39.7478 52.0316 40.963C51.7825 41 51.6573 41.0198 51.4082 41.0581V41.0568Z" fill="#021B05"/>
<path d="M52.7113 40.8614C52.5165 39.6449 52.4191 39.0372 52.2242 37.8207C53.1024 37.6939 53.5421 37.6344 54.423 37.5235C54.4564 37.7626 54.4731 37.8814 54.5065 38.1205C53.8831 38.1985 53.5727 38.2407 52.9507 38.3266C52.9882 38.5736 53.0077 38.6964 53.0453 38.9435C53.5894 38.8682 53.8622 38.8312 54.4077 38.7625C54.4411 39.0016 54.4578 39.1205 54.4926 39.3595C53.9499 39.4282 53.6799 39.4652 53.1386 39.5405C53.1775 39.7954 53.1984 39.9236 53.2374 40.1798C53.8566 40.094 54.167 40.053 54.7876 39.9751C54.821 40.2142 54.8377 40.3331 54.8711 40.5721C54.0069 40.6805 53.5755 40.7386 52.7141 40.8641L52.7113 40.8614Z" fill="#021B05"/>
<path d="M58.7031 40.0614C58.5111 40.175 58.2842 40.2437 58.024 40.2701C57.8013 40.2926 57.594 40.2728 57.4019 40.2133C57.2099 40.1539 57.0387 40.0614 56.8912 39.9359C56.7423 39.8104 56.6198 39.6559 56.5224 39.4723C56.425 39.2887 56.3624 39.0826 56.3346 38.8567C56.3346 38.8528 56.3346 38.8515 56.3346 38.8475C56.3081 38.6295 56.3207 38.4208 56.3735 38.2214C56.4264 38.0219 56.5127 37.8436 56.631 37.6851C56.7493 37.5266 56.8982 37.3958 57.0749 37.2928C57.2516 37.1897 57.452 37.1277 57.6761 37.1065C57.8069 37.0933 57.928 37.092 58.0379 37.0999C58.1479 37.1092 58.2508 37.1263 58.3455 37.1528C58.4415 37.1792 58.532 37.2148 58.6182 37.2598C58.7045 37.3047 58.788 37.3575 58.8701 37.4183C58.7282 37.6375 58.6572 37.7472 58.518 37.9664C58.4568 37.9215 58.397 37.8832 58.3385 37.8502C58.2787 37.8172 58.2174 37.7908 58.1562 37.7709C58.0936 37.7498 58.0268 37.7366 57.9558 37.7287C57.8848 37.7208 57.8083 37.7208 57.7248 37.7287C57.6079 37.7406 57.5021 37.7762 57.4061 37.8383C57.3101 37.8991 57.2294 37.977 57.164 38.0708C57.0972 38.1646 57.0499 38.2716 57.0206 38.3918C56.9914 38.512 56.9845 38.6375 56.9998 38.7682C56.9998 38.7722 56.9998 38.7735 56.9998 38.7775C57.0165 38.9175 57.0526 39.0443 57.1083 39.1579C57.164 39.2715 57.2363 39.3679 57.324 39.4472C57.4117 39.5264 57.5105 39.5859 57.6218 39.6229C57.7318 39.6599 57.8514 39.6731 57.9795 39.6598C58.2147 39.6374 58.4053 39.5568 58.5542 39.4181C58.5361 39.2424 58.5264 39.1539 58.5083 38.9783C58.2536 39.002 58.1256 39.0139 57.8709 39.039C57.8459 38.8065 57.8333 38.6903 57.8069 38.4578C58.3107 38.4076 58.5612 38.3852 59.0649 38.3403C59.1164 38.8726 59.1429 39.1381 59.1944 39.6704C59.0608 39.817 58.8966 39.9478 58.7045 40.0614H58.7031Z" fill="#021B05"/>
<path d="M61.5712 39.9208C61.2971 39.5444 61.1579 39.3568 60.8796 38.983C60.6806 38.9975 60.5804 39.0054 60.3814 39.02C60.4148 39.4123 60.4315 39.6091 60.4663 40.0014C60.2158 40.0212 60.0891 40.0305 59.8386 40.0516C59.7259 38.8258 59.6689 38.2129 59.5562 36.9871C60.0933 36.9422 60.3619 36.9224 60.8977 36.8827C61.247 36.8576 61.5267 36.929 61.7327 37.0941C61.94 37.2592 62.0527 37.5022 62.075 37.8206C62.075 37.8245 62.075 37.8259 62.075 37.8298C62.0917 38.0782 62.0485 38.2842 61.9456 38.448C61.8426 38.6118 61.702 38.736 61.5225 38.8218C61.837 39.2406 61.9929 39.4506 62.3032 39.872C62.0096 39.8905 61.8621 39.8997 61.5684 39.9195L61.5712 39.9208ZM61.4307 37.8998C61.4195 37.7545 61.3667 37.6475 61.272 37.5802C61.1774 37.5128 61.0508 37.4851 60.8921 37.497C60.6374 37.5154 60.5094 37.5247 60.2534 37.5445C60.284 37.8972 60.2993 38.0729 60.3285 38.4242C60.5859 38.4044 60.7154 38.3952 60.9742 38.3754C61.1315 38.3635 61.2498 38.3159 61.3277 38.2314C61.4056 38.1468 61.4404 38.0385 61.4307 37.9078C61.4307 37.9038 61.4307 37.9025 61.4307 37.8985V37.8998Z" fill="#021B05"/>
<path d="M64.9141 39.7419C64.7972 39.4698 64.7387 39.3351 64.6204 39.063C64.1334 39.0828 63.8912 39.0947 63.4041 39.1198C63.3151 39.4011 63.2705 39.5411 63.1829 39.8225C62.9268 39.837 62.7988 39.8436 62.5427 39.8595C62.9505 38.594 63.1606 37.9613 63.5976 36.6985C63.8355 36.6866 63.9552 36.6814 64.1946 36.6708C64.7596 37.886 65.0351 38.495 65.5723 39.7168C65.3093 39.7261 65.1785 39.73 64.9155 39.7406L64.9141 39.7419ZM63.9288 37.4977C63.7938 37.9032 63.7284 38.1066 63.5962 38.5121C63.9037 38.4963 64.0568 38.4897 64.3644 38.4765C64.1918 38.0842 64.1041 37.8887 63.9274 37.4977H63.9288Z" fill="#021B05"/>
<path d="M68.0189 39.6582C67.4525 38.8841 67.1659 38.4984 66.5786 37.731C66.6009 38.513 66.612 38.9039 66.6329 39.6859C66.3852 39.6925 66.2599 39.6952 66.0122 39.7031C65.9705 38.4733 65.9496 37.8591 65.9078 36.6293C66.1472 36.6214 66.2655 36.6188 66.5048 36.6122C67.0782 37.3558 67.3593 37.7283 67.9132 38.4786C67.9006 37.7217 67.8951 37.3426 67.8839 36.5857C68.14 36.5818 68.2666 36.5805 68.5227 36.5778C68.5352 37.8076 68.5408 38.4231 68.5533 39.6529C68.339 39.6542 68.2318 39.6555 68.0175 39.6595L68.0189 39.6582Z" fill="#021B05"/>
<path d="M71.7838 38.7356C71.7059 38.9219 71.5973 39.083 71.4596 39.2178C71.3218 39.3538 71.159 39.4595 70.9711 39.5361C70.7832 39.6127 70.5773 39.651 70.3546 39.6497C69.9079 39.6471 69.6853 39.6471 69.2385 39.6484C69.2344 38.4186 69.2316 37.8031 69.2274 36.5733C69.6867 36.572 69.9163 36.5733 70.3755 36.5746C70.6051 36.5759 70.8166 36.6169 71.0073 36.6961C71.198 36.7754 71.3608 36.8864 71.4972 37.0251C71.6335 37.1651 71.7365 37.3289 71.8075 37.5164C71.8785 37.704 71.9119 37.9061 71.9077 38.1227C71.9077 38.1267 71.9077 38.128 71.9077 38.132C71.9035 38.3486 71.8618 38.5507 71.7838 38.7356ZM71.2411 38.1201C71.2425 37.9854 71.223 37.8612 71.1826 37.7463C71.1423 37.6314 71.0824 37.5323 71.0073 37.4504C70.9321 37.3672 70.8403 37.3024 70.7318 37.2562C70.6232 37.21 70.5035 37.1862 70.3727 37.1849C70.1737 37.1849 70.0735 37.1836 69.8745 37.1822C69.8731 37.9233 69.8717 38.2945 69.8703 39.0368C70.0666 39.0368 70.164 39.0368 70.3588 39.0394C70.4882 39.0394 70.6051 39.0196 70.7123 38.976C70.8194 38.9338 70.9113 38.8717 70.9878 38.7898C71.0644 38.7092 71.1242 38.6128 71.1687 38.5018C71.2133 38.3909 71.2369 38.2667 71.2383 38.1293C71.2383 38.1254 71.2383 38.1241 71.2383 38.1201H71.2411Z" fill="#021B05"/>
<path d="M75.6796 39.2993C75.6211 39.4156 75.5432 39.5107 75.4472 39.5873C75.3512 39.6626 75.237 39.7194 75.1076 39.7564C74.9782 39.7934 74.8363 39.8079 74.6804 39.8013C74.4633 39.792 74.2518 39.7432 74.0444 39.6547C73.8385 39.5662 73.652 39.4367 73.485 39.2637C73.6408 39.0774 73.7202 38.9836 73.8774 38.7974C74.0041 38.9163 74.1363 39.0114 74.2713 39.0853C74.4062 39.158 74.5565 39.1976 74.7208 39.2055C74.8516 39.2108 74.9545 39.1897 75.0311 39.1421C75.1062 39.0946 75.1466 39.0246 75.1508 38.9348C75.1508 38.9308 75.1508 38.9295 75.1508 38.9255C75.1535 38.8819 75.148 38.8423 75.1341 38.808C75.1201 38.7736 75.0937 38.7406 75.052 38.7102C75.0102 38.6785 74.9532 38.6468 74.878 38.6138C74.8029 38.5808 74.7054 38.5464 74.5858 38.5094C74.441 38.4645 74.3102 38.4183 74.1933 38.3668C74.0764 38.3153 73.9776 38.2532 73.8969 38.1818C73.8162 38.1105 73.755 38.022 73.7132 37.9177C73.6715 37.8133 73.6534 37.6852 73.6589 37.5333C73.6589 37.5293 73.6589 37.528 73.6589 37.524C73.6645 37.384 73.6937 37.2572 73.748 37.1462C73.8023 37.0353 73.876 36.9402 73.9693 36.8609C74.0625 36.783 74.1738 36.7236 74.3005 36.6839C74.4271 36.6443 74.5677 36.6285 74.718 36.6351C74.9337 36.6443 75.1299 36.6866 75.3066 36.7619C75.4834 36.8371 75.6434 36.9428 75.7881 37.0762C75.642 37.2731 75.5696 37.3721 75.4263 37.5689C75.3011 37.4686 75.1772 37.3893 75.0534 37.3299C74.9309 37.2704 74.807 37.2374 74.6818 37.2321C74.5565 37.2268 74.4619 37.2493 74.3965 37.2968C74.3311 37.3457 74.2977 37.4078 74.2949 37.4844C74.2949 37.4884 74.2949 37.4897 74.2949 37.4936C74.2921 37.5438 74.3005 37.5874 74.3158 37.6244C74.3325 37.6614 74.3631 37.6957 74.409 37.7274C74.455 37.7591 74.519 37.7895 74.5997 37.8186C74.6804 37.849 74.782 37.8833 74.9058 37.9243C75.0506 37.9718 75.18 38.0233 75.2927 38.0801C75.404 38.1369 75.4987 38.203 75.5738 38.2783C75.649 38.3536 75.7032 38.4407 75.738 38.5398C75.7728 38.6389 75.7853 38.7551 75.7784 38.8899C75.7784 38.8938 75.7784 38.8951 75.7784 38.8991C75.77 39.051 75.7366 39.1857 75.6782 39.3007L75.6796 39.2993Z" fill="#021B05"/>
<path d="M78.0602 39.948C78.0992 39.4553 78.1187 39.2096 78.1576 38.7169C77.6886 38.6839 77.4549 38.668 76.9859 38.639C76.9525 39.1317 76.9358 39.3787 76.901 39.8714C76.6491 39.8555 76.5239 39.8489 76.272 39.8344C76.3485 38.6059 76.3875 37.9917 76.464 36.7646C76.7229 36.7791 76.8523 36.787 77.1111 36.8029C77.0777 37.289 77.061 37.532 77.0276 38.0168C77.4994 38.0459 77.7346 38.0617 78.2063 38.0947C78.2453 37.6087 78.2648 37.3669 78.3024 36.8808C78.5612 36.8993 78.6906 36.9086 78.9481 36.9284C78.8437 38.1542 78.7908 38.7671 78.6864 39.9942C78.436 39.9744 78.3093 39.9652 78.0588 39.948H78.0602Z" fill="#021B05"/>
<path d="M81.809 39.543C81.731 39.7081 81.6308 39.8442 81.5084 39.9472C81.3859 40.0502 81.2453 40.1242 81.0853 40.1665C80.9239 40.2088 80.7485 40.2207 80.5593 40.2022C80.1766 40.1665 79.8871 40.0265 79.6881 39.7808C79.4891 39.5351 79.4084 39.1851 79.4501 38.7333C79.5142 38.0332 79.5462 37.6832 79.6102 36.9818C79.869 37.0029 79.9971 37.0135 80.2559 37.0373C80.1891 37.7307 80.1543 38.0768 80.0875 38.7703C80.0625 39.0213 80.1 39.2141 80.1961 39.3515C80.2935 39.4875 80.4382 39.5655 80.6316 39.5827C80.8251 39.6011 80.9837 39.5536 81.1062 39.4426C81.2287 39.3304 81.3038 39.152 81.3302 38.9077C81.4068 38.2063 81.4444 37.8562 81.5209 37.1548C81.7783 37.1799 81.9078 37.1931 82.1652 37.2195C82.0859 37.9091 82.0469 38.2551 81.9676 38.9446C81.9412 39.1771 81.8883 39.3766 81.8103 39.543H81.809Z" fill="#021B05"/>
<path d="M83.3875 37.9679C83.3541 38.2307 83.3374 38.3628 83.304 38.627C83.8565 38.6904 84.1321 38.7234 84.6831 38.7934C84.6497 39.0352 84.6316 39.1567 84.5983 39.3984C84.0499 39.3297 83.7758 39.2967 83.2261 39.2333C83.1663 39.7062 83.1357 39.9426 83.0758 40.4155C82.8253 40.3865 82.7001 40.3732 82.4496 40.3455C82.5971 39.1237 82.6708 38.5121 82.8197 37.2902C83.7118 37.388 84.1571 37.4408 85.0477 37.5544C85.013 37.7961 84.9963 37.9177 84.9615 38.1594C84.3324 38.0788 84.0166 38.0405 83.3861 37.9692L83.3875 37.9679Z" fill="#021B05"/>
<path d="M86.1114 38.3103C86.071 38.5731 86.0516 38.7039 86.0112 38.9668C86.5623 39.0421 86.8378 39.0817 87.3875 39.1636C87.3472 39.4053 87.3277 39.5255 87.2873 39.7672C86.7404 39.6854 86.4663 39.6457 85.9194 39.5704C85.847 40.042 85.8108 40.2771 85.7398 40.7487C85.4907 40.7143 85.3655 40.6972 85.115 40.6642C85.2931 39.4463 85.3836 38.836 85.5617 37.6181C86.4524 37.7357 86.8963 37.7991 87.7841 37.9325C87.7438 38.1742 87.7229 38.2944 87.6826 38.5362C87.0549 38.4411 86.7404 38.3961 86.1114 38.309V38.3103Z" fill="#021B05"/>
<path d="M87.7717 41.0482C87.9804 39.8343 88.0862 39.2267 88.2949 38.0128C88.551 38.0524 88.679 38.0722 88.9351 38.1145C88.7611 39.0867 88.6748 39.5728 88.5009 40.545C89.0687 40.6361 89.3525 40.6837 89.9189 40.7814C89.873 41.0218 89.8494 41.142 89.8034 41.3824C88.9907 41.2411 88.5844 41.175 87.7703 41.0482H87.7717Z" fill="#021B05"/>
<path d="M90.2717 41.464C90.5097 40.2553 90.6294 39.6504 90.8673 38.4404C91.7427 38.5949 92.1796 38.6768 93.0508 38.8486C92.9993 39.085 92.9743 39.2026 92.9228 39.4377C92.3049 39.3162 91.9959 39.258 91.3781 39.1444C91.328 39.3901 91.3029 39.5117 91.2542 39.7573C91.7956 39.8564 92.0655 39.9079 92.6069 40.0123C92.5554 40.2487 92.5303 40.3663 92.4788 40.6014C91.9417 40.4971 91.6731 40.4455 91.1345 40.3478C91.083 40.6014 91.058 40.7282 91.0065 40.9818C91.623 41.0941 91.9305 41.1536 92.5456 41.2738C92.4942 41.5089 92.4691 41.6278 92.4176 41.8629C91.5618 41.6951 91.1331 41.6145 90.2745 41.4626L90.2717 41.464Z" fill="#021B05"/>
<path d="M13.0461 9.93103L13.2368 6.87841L13.8644 6.91408L13.6738 9.9667L13.0461 9.93103Z" fill="#F4FBF4"/>
<path d="M14.4186 10.0088L14.6092 6.95616L15.2369 6.99182L15.0462 10.0444L14.4186 10.0088Z" fill="#F4FBF4"/>
<path d="M17.2041 7.72359L17.051 10.1567L16.4234 10.121L16.5765 7.68792L15.7081 7.63905L15.7471 7.01954L18.1129 7.15295L18.0739 7.77246L17.2055 7.72359H17.2041Z" fill="#F4FBF4"/>
<path d="M21.7012 10.33C21.4925 10.4132 21.2573 10.4476 20.9971 10.433C20.7744 10.4212 20.5726 10.3696 20.3945 10.2811C20.2164 10.1926 20.0647 10.0738 19.9422 9.92714C19.8198 9.78052 19.7265 9.6088 19.6653 9.41198C19.6041 9.21649 19.5804 9.00514 19.5943 8.77795V8.7687C19.6082 8.55075 19.6583 8.34865 19.746 8.16241C19.8323 7.97616 19.9478 7.815 20.0897 7.67895C20.2317 7.54289 20.3973 7.43854 20.5838 7.36589C20.7702 7.29324 20.9734 7.26286 21.1905 7.27607C21.3185 7.28268 21.434 7.29985 21.537 7.32362C21.64 7.3474 21.736 7.38042 21.8237 7.42137C21.9114 7.461 21.9935 7.50988 22.0686 7.56667C22.1438 7.62347 22.2161 7.68687 22.2857 7.7582L21.8585 8.24562C21.807 8.19278 21.7555 8.14655 21.704 8.1056C21.6511 8.06465 21.5969 8.02899 21.5412 7.99993C21.4841 7.97087 21.4229 7.9471 21.3547 7.9286C21.2879 7.91011 21.2128 7.89822 21.1321 7.89426C21.018 7.88765 20.9094 7.90747 20.8078 7.95238C20.7048 7.99729 20.6144 8.06069 20.5337 8.14259C20.453 8.22449 20.3889 8.32224 20.3388 8.43451C20.2887 8.54679 20.2609 8.66963 20.2526 8.8004V8.80965C20.2428 8.94966 20.2567 9.07912 20.2915 9.20064C20.3263 9.32084 20.3792 9.42651 20.4516 9.51898C20.5239 9.61144 20.6102 9.6841 20.7118 9.73825C20.8134 9.79241 20.9275 9.82278 21.0555 9.83071C21.2893 9.84392 21.4897 9.79373 21.6581 9.68013L21.6859 9.24027L21.0541 9.2046L21.0903 8.62473L22.3303 8.69473L22.2468 10.0209C22.0909 10.1464 21.91 10.2508 21.7012 10.334V10.33Z" fill="#F4FBF4"/>
<path d="M25.2236 9.89122C25.154 10.059 25.0622 10.1977 24.9453 10.3073C24.8298 10.4156 24.692 10.4949 24.5334 10.5424C24.3747 10.59 24.2008 10.6085 24.0101 10.5979C23.626 10.5768 23.3324 10.446 23.1264 10.2069C22.9205 9.96783 22.8314 9.62307 22.8592 9.17264L22.9678 7.42772L23.5954 7.46338L23.4868 9.19114C23.4715 9.44079 23.5133 9.63232 23.6149 9.76573C23.7165 9.89782 23.8626 9.97047 24.056 9.98104C24.2495 9.99161 24.4039 9.93877 24.5208 9.82385C24.6363 9.70761 24.7031 9.52797 24.7184 9.2836L24.8284 7.53472L25.456 7.57038L25.3488 9.29285C25.3335 9.52533 25.2918 9.72611 25.2236 9.89386V9.89122Z" fill="#F4FBF4"/>
<path d="M29.0408 10.8552L28.4939 10.8248L27.9748 8.79058L27.2052 10.7521L26.6583 10.7217L25.8762 7.59251L26.5498 7.63082L27.0118 9.73106L27.7828 7.69158L28.3213 7.72196L28.832 9.8341L29.5529 7.79989L30.2098 7.83688L29.0422 10.8565L29.0408 10.8552Z" fill="#F4FBF4"/>
<path d="M32.6086 11.0349L32.3901 10.3361L31.1822 10.2674L30.8788 10.9371L30.2386 10.9014L31.6539 7.89505L32.2329 7.92807L33.264 11.0718L32.6072 11.0349H32.6086ZM31.8863 8.71798L31.4452 9.68621L32.2036 9.72848L31.8863 8.71665V8.71798Z" fill="#F4FBF4"/>
<path d="M35.4922 11.1976L35.5688 9.97184L34.411 9.90711L34.3344 11.1329L33.7068 11.0973L33.8974 8.04463L34.5251 8.08029L34.4499 9.28893L35.6078 9.35365L35.6829 8.14502L36.3105 8.18068L36.1199 11.2333L35.4922 11.1976Z" fill="#F4FBF4"/>
<path d="M38.9301 11.3897L38.7116 10.6909L37.505 10.6236L37.2017 11.2933L36.5615 11.2576L37.9768 8.25252L38.5557 8.28554L39.5869 11.4293L38.9301 11.3923V11.3897ZM38.2078 9.07281L37.7667 10.041L38.5251 10.0833L38.2078 9.07149V9.07281Z" fill="#F4FBF4"/>
<path d="M41.4734 9.09094L41.3203 11.5241L40.6927 11.4884L40.8458 9.05527L39.9774 9.0064L40.0164 8.38689L42.3822 8.52031L42.3432 9.13981L41.4748 9.09094H41.4734Z" fill="#F4FBF4"/>
<path d="M42.6986 11.6026L42.8893 8.54999L43.5169 8.58566L43.3262 11.6383L42.6986 11.6026Z" fill="#F4FBF4"/>
<path d="M44.3661 9.3338L44.117 9.31926L44.1602 8.62183L44.817 8.65881L44.7794 9.24794C44.7614 9.5359 44.6834 9.73932 44.5443 9.8582C44.4051 9.97708 44.2158 10.0312 43.9737 10.0207L43.9375 9.74328C44.227 9.72743 44.3703 9.59138 44.3633 9.3338H44.3661Z" fill="#F4FBF4"/>
<path d="M47.2246 11.3574C47.1662 11.4723 47.0882 11.5674 46.9908 11.6414C46.8934 11.7167 46.7807 11.7709 46.6499 11.8065C46.5204 11.8409 46.3771 11.8541 46.2226 11.8462C46.0055 11.8343 45.794 11.7814 45.5894 11.6903C45.3849 11.5978 45.2026 11.4644 45.0411 11.2901L45.4419 10.8357C45.5658 10.9559 45.6938 11.0536 45.8274 11.1289C45.961 11.2042 46.1085 11.2451 46.2713 11.2544C46.4021 11.2623 46.5051 11.2425 46.5803 11.1949C46.6554 11.1487 46.6958 11.08 46.7014 10.9889V10.9796C46.7041 10.936 46.7 10.8977 46.686 10.8634C46.6721 10.8291 46.6471 10.796 46.6053 10.7643C46.565 10.7326 46.5079 10.7009 46.4356 10.6666C46.3632 10.6322 46.2672 10.5979 46.1489 10.5583C46.0069 10.512 45.8789 10.4632 45.7648 10.4103C45.6507 10.3575 45.5546 10.2941 45.4767 10.2214C45.3988 10.1488 45.3417 10.0603 45.3028 9.95593C45.2638 9.85158 45.2499 9.72346 45.2582 9.57287V9.56363C45.268 9.42361 45.3 9.29944 45.3556 9.19113C45.4113 9.08149 45.4851 8.98903 45.5783 8.91242C45.6715 8.83581 45.7801 8.779 45.9053 8.74202C46.0292 8.70503 46.1656 8.6905 46.3131 8.69975C46.5218 8.71163 46.7125 8.75522 46.8837 8.83184C47.0548 8.90845 47.2093 9.01412 47.3485 9.14754L46.9908 9.63495C46.8683 9.53456 46.7487 9.45399 46.629 9.39322C46.5107 9.33246 46.3896 9.29944 46.2672 9.29152C46.1447 9.28491 46.0515 9.30472 45.9875 9.35228C45.9234 9.39983 45.8886 9.46191 45.8845 9.53721V9.54645C45.8803 9.59533 45.8873 9.63892 45.9026 9.67722C45.9179 9.71421 45.9485 9.74856 45.993 9.78026C46.0375 9.81196 46.0988 9.84366 46.1781 9.87404C46.2574 9.90442 46.3562 9.9414 46.4773 9.98235C46.6192 10.0312 46.7445 10.0841 46.8558 10.1422C46.9658 10.199 47.0576 10.2664 47.13 10.3416C47.2037 10.4169 47.2566 10.5041 47.29 10.6019C47.3234 10.6996 47.3359 10.8158 47.3276 10.9493V10.9585C47.3178 11.1091 47.2831 11.2425 47.2246 11.3574Z" fill="#F4FBF4"/>
<path d="M93.8563 9.34716C93.7742 9.41849 93.6837 9.52681 93.5849 9.67079L93.1243 9.31282C93.1897 9.20715 93.2565 9.11336 93.3233 9.03014C93.3915 8.94692 93.4652 8.87692 93.5445 8.8188C93.6239 8.76068 93.7143 8.71444 93.8131 8.68274C93.9119 8.64972 94.026 8.62991 94.1541 8.62463C94.3058 8.6167 94.4435 8.63255 94.5674 8.67218C94.6912 8.71181 94.7984 8.76992 94.8875 8.84918C94.9779 8.92843 95.0489 9.02486 95.099 9.13846C95.1505 9.25338 95.1797 9.38151 95.1867 9.52417C95.1936 9.6523 95.1839 9.76722 95.1588 9.86893C95.1324 9.97064 95.092 10.0684 95.035 10.1622C94.9793 10.2559 94.9056 10.3484 94.8151 10.4422C94.7246 10.536 94.6203 10.6377 94.5006 10.7486L94.0567 11.1555L95.3008 11.0947L95.3314 11.6746L93.2175 11.7776L93.1883 11.2466L94.0942 10.3682C94.1805 10.285 94.2515 10.211 94.3113 10.1463C94.3698 10.0803 94.4185 10.0182 94.4547 9.96007C94.4908 9.90195 94.5173 9.84515 94.5312 9.79099C94.5465 9.73683 94.5521 9.67739 94.5479 9.61399C94.5409 9.48322 94.5006 9.38679 94.4254 9.32339C94.3517 9.25999 94.257 9.23092 94.1429 9.2362C94.0316 9.24149 93.9342 9.2798 93.8521 9.35113L93.8563 9.34716Z" fill="#F4FBF4"/>
<path d="M97.9111 10.608C97.8679 10.8154 97.797 10.995 97.7009 11.1456C97.6049 11.2962 97.4797 11.4164 97.3294 11.5049C97.1791 11.5934 97.001 11.6436 96.7978 11.6529C96.589 11.6634 96.4081 11.6383 96.2578 11.5789C96.1075 11.5195 95.9684 11.4389 95.8403 11.3385L96.1437 10.8141C96.2523 10.8986 96.3552 10.9607 96.4527 10.9977C96.5501 11.036 96.66 11.0505 96.7825 11.0452C96.9592 11.036 97.0914 10.966 97.1777 10.8326C97.264 10.6992 97.3127 10.5288 97.3238 10.3187C97.2556 10.3861 97.1763 10.4416 97.0831 10.4839C96.9898 10.5261 96.8813 10.5512 96.756 10.5565C96.6016 10.5644 96.4596 10.5486 96.3316 10.509C96.2036 10.4693 96.0936 10.4099 95.999 10.3306C95.9044 10.2514 95.8306 10.151 95.7763 10.0308C95.722 9.91058 95.69 9.77188 95.6817 9.61602C95.6733 9.46147 95.6928 9.3175 95.7388 9.18408C95.7847 9.05067 95.8529 8.93311 95.9433 8.83272C96.0338 8.73233 96.1437 8.65176 96.2759 8.591C96.4081 8.53023 96.5542 8.49721 96.7143 8.48928C96.8089 8.484 96.8966 8.48664 96.9745 8.49589C97.0525 8.50513 97.1248 8.52098 97.1916 8.54476C97.2584 8.56854 97.321 8.59892 97.3809 8.63855C97.4407 8.67817 97.4992 8.72572 97.5562 8.7812C97.6105 8.83404 97.6606 8.8948 97.7051 8.96217C97.7497 9.02954 97.79 9.11011 97.8248 9.20126C97.8596 9.2924 97.8888 9.39807 97.9111 9.51695C97.9333 9.63583 97.9487 9.77056 97.957 9.92115C97.9709 10.1708 97.957 10.4006 97.9125 10.608H97.9111ZM97.1401 9.17747C97.0469 9.09425 96.9202 9.05727 96.7616 9.0652C96.6057 9.07312 96.4874 9.122 96.4081 9.21182C96.3288 9.30164 96.2926 9.41656 96.2996 9.55658C96.3065 9.6966 96.358 9.80623 96.4513 9.88681C96.5445 9.96738 96.6697 10.003 96.8242 9.99512C96.9801 9.98719 97.0984 9.93832 97.1805 9.8485C97.2612 9.75868 97.2988 9.6464 97.2918 9.51299C97.2848 9.37297 97.2334 9.26201 97.1401 9.17879V9.17747Z" fill="#F4FBF4"/>
<path d="M101.386 10.8057C101.345 10.9444 101.282 11.0619 101.199 11.1584C101.115 11.2535 101.012 11.3275 100.89 11.379C100.767 11.4305 100.631 11.4595 100.48 11.4661C100.258 11.4767 100.069 11.441 99.9127 11.3578C99.7568 11.2746 99.626 11.1742 99.5216 11.0527L99.8918 10.5626C99.9781 10.6551 100.064 10.7251 100.151 10.7753C100.237 10.8255 100.33 10.848 100.43 10.8427C100.55 10.8374 100.642 10.7925 100.706 10.7093C100.77 10.626 100.796 10.4953 100.787 10.3183L100.681 8.35012L101.325 8.31842L101.434 10.317C101.443 10.5032 101.428 10.6657 101.386 10.8044V10.8057Z" fill="#F4FBF4"/>
<path d="M104.258 11.2378L103.96 10.5654L102.752 10.6236L102.528 11.321L101.888 11.3527L102.945 8.21686L103.524 8.18912L104.915 11.2061L104.258 11.2378ZM103.27 9.01073L102.944 10.0199L103.703 9.98292L103.27 9.01073Z" fill="#F4FBF4"/>
<path d="M107.358 11.0878L105.871 9.21342L105.975 11.1552L105.354 11.1855L105.189 8.13159L105.769 8.10386L107.209 9.91879L107.108 8.03781L107.728 8.00743L107.894 11.0614L107.36 11.0878H107.358Z" fill="#F4FBF4"/>
<path d="M109.608 9.94208L109.573 9.3054L110.83 9.24463L110.864 9.88131L109.608 9.94208Z" fill="#F4FBF4"/>
<path d="M114.968 9.80671C114.916 10.0022 114.84 10.1726 114.736 10.3205C114.631 10.4685 114.503 10.5874 114.351 10.6759C114.2 10.7644 114.029 10.8146 113.838 10.8238C113.647 10.8331 113.472 10.8014 113.311 10.7287C113.149 10.6561 113.01 10.5517 112.893 10.4143C112.775 10.277 112.682 10.1145 112.611 9.92692C112.541 9.73935 112.499 9.53328 112.487 9.31004C112.476 9.08945 112.494 8.88075 112.545 8.68393C112.595 8.48712 112.673 8.3154 112.778 8.16746C112.882 8.01952 113.01 7.90064 113.162 7.81214C113.313 7.72363 113.484 7.67344 113.675 7.66419C113.866 7.65495 114.041 7.68665 114.201 7.7593C114.361 7.83195 114.502 7.9363 114.619 8.07367C114.737 8.21105 114.83 8.37352 114.901 8.56373C114.972 8.75395 115.012 8.95736 115.025 9.17928C115.038 9.40383 115.018 9.61254 114.967 9.80803L114.968 9.80671ZM114.317 8.83188C114.28 8.71431 114.233 8.61261 114.173 8.52807C114.113 8.44353 114.044 8.37881 113.965 8.33257C113.885 8.28634 113.796 8.26653 113.702 8.27049C113.607 8.27577 113.522 8.30351 113.448 8.35503C113.375 8.40654 113.313 8.47656 113.263 8.56506C113.213 8.65356 113.177 8.75791 113.156 8.87811C113.135 8.99831 113.127 9.12908 113.134 9.2691C113.141 9.40911 113.163 9.53725 113.199 9.65481C113.235 9.77237 113.283 9.87408 113.343 9.95862C113.401 10.0432 113.471 10.1079 113.551 10.1541C113.632 10.2003 113.72 10.2202 113.814 10.2162C113.909 10.2109 113.994 10.1832 114.068 10.1317C114.141 10.0801 114.203 10.0088 114.253 9.91899C114.303 9.82917 114.339 9.72482 114.361 9.60594C114.383 9.48705 114.39 9.3576 114.383 9.21759C114.377 9.07757 114.354 8.94944 114.318 8.83188H114.317Z" fill="#F4FBF4"/>
<path d="M116.079 7.57812L116.508 7.55699L116.674 10.6334L116.053 10.6638L115.924 8.26764L115.432 8.42351L115.272 7.8793L116.078 7.57812H116.079Z" fill="#F4FBF4"/>
<path d="M119.111 8.06027L119.147 8.71941L120.509 8.65336L120.543 9.25966L119.18 9.32571L119.244 10.5079L118.615 10.5383L118.45 7.48436L120.625 7.37868L120.658 7.98498L119.112 8.06027H119.111Z" fill="#F4FBF4"/>
<path d="M121.293 10.4085L121.127 7.35458L123.277 7.25023L123.309 7.8486L121.778 7.92257L121.812 8.54207L123.159 8.47603L123.191 9.07441L121.844 9.14045L121.879 9.78241L123.429 9.70712L123.461 10.3055L121.29 10.4112L121.293 10.4085Z" fill="#F4FBF4"/>
<path d="M126.35 9.69034C126.305 9.79734 126.238 9.88848 126.148 9.96245C126.057 10.0364 125.948 10.0945 125.818 10.1355C125.689 10.1764 125.544 10.2015 125.383 10.2095L124.026 10.2755L123.86 7.22156L125.184 7.15684C125.477 7.14231 125.711 7.20308 125.885 7.33649C126.059 7.47122 126.154 7.65878 126.166 7.90051V7.90976C126.172 7.99694 126.166 8.07487 126.149 8.14224C126.133 8.20961 126.109 8.27169 126.078 8.32717C126.048 8.38265 126.01 8.43152 125.968 8.47511C125.927 8.5187 125.879 8.55568 125.831 8.58739C125.999 8.64683 126.134 8.73136 126.236 8.841C126.337 8.95063 126.393 9.10782 126.404 9.31124V9.32049C126.412 9.46051 126.393 9.58335 126.348 9.69034H126.35ZM125.555 8.04449C125.55 7.94278 125.511 7.86617 125.437 7.81597C125.363 7.76578 125.26 7.74332 125.126 7.74992L124.506 7.78031L124.541 8.42624L125.12 8.3985C125.259 8.39189 125.367 8.36019 125.445 8.30603C125.523 8.25187 125.561 8.16734 125.554 8.05374V8.04449H125.555ZM125.781 9.25841C125.775 9.1567 125.735 9.07744 125.657 9.02196C125.579 8.96648 125.46 8.94139 125.298 8.94931L124.571 8.98498L124.607 9.65732L125.355 9.62034C125.494 9.61373 125.601 9.58204 125.676 9.52392C125.751 9.4658 125.788 9.38126 125.781 9.26766V9.25841Z" fill="#F4FBF4"/>
</svg>
